<?xml version="1.0" standalone="no"?>
<!DOCTYPE svg PUBLIC "-//W3C//DTD SVG 1.1//EN" "http://www.w3.org/Graphics/SVG/1.1/DTD/svg11.dtd" >
<svg xmlns="http://www.w3.org/2000/svg" xmlns:xlink="http://www.w3.org/1999/xlink" version="1.1">
<metadata></metadata>
<defs>
<font id="britti_sansmedium" horiz-adv-x="1282" >
<font-face units-per-em="2048" ascent="1638" descent="-410" />
<missing-glyph horiz-adv-x="569" />
<glyph unicode="&#xfb01;" horiz-adv-x="1019" d="M25 838v174h142q40 0 81 -11q3 0 26 -7l1 4q-27 8 -38 18q-24 14 -33 40q-26 72 -26 154q0 70 40.5 115.5t115.5 45.5h179l-1 -173h-84q-25 0 -41.5 -19.5t-16.5 -49.5l11 -117h539v-1013h-209l-1 839h-311v-838h-210v838h-164zM702 1243q0 47 33 80t80 33t80.5 -33 t33.5 -80t-33.5 -80.5t-80.5 -33.5t-80 33.5t-33 80.5z" />
<glyph horiz-adv-x="0" />
<glyph horiz-adv-x="0" />
<glyph horiz-adv-x="682" />
<glyph unicode="&#xa;" horiz-adv-x="0" />
<glyph unicode="&#xd;" horiz-adv-x="0" />
<glyph unicode=" "  horiz-adv-x="569" />
<glyph unicode="&#x09;" horiz-adv-x="569" />
<glyph unicode="&#xa0;" horiz-adv-x="569" />
<glyph unicode="!" horiz-adv-x="397" d="M78 1245v126h235v-126q0 -63 -1 -94q-1 -42 -9.5 -144t-11.5 -140q-16 -154 -19 -273q-1 -38 -1 -104v-107h-150v107q0 27 -2 103q0 18 -19 275q-2 37 -11 139t-10 144q-1 31 -1 94zM82 128q0 47 33 80.5t80 33.5t80.5 -33.5t33.5 -80.5t-33.5 -80t-80.5 -33t-80 33 t-33 80z" />
<glyph unicode="&#x22;" horiz-adv-x="649" d="M34 1160q-10 54 27 92l164 174l96 -91l-74 -79q-13 -15 -4 -32q14 -27 13 -56q-2 -39 -30 -68.5t-67 -34.5q-45 -6 -81 22t-44 73zM326 1160q-10 54 27 92l164 174l96 -91l-74 -79q-13 -15 -4 -32q14 -26 12 -56q-2 -40 -29.5 -69t-66.5 -34q-46 -6 -81.5 21.5 t-43.5 73.5z" />
<glyph unicode="#" horiz-adv-x="1325" d="M57 396v199h202q46 0 61 42l55 139h-224v199h246q20 0 37 12t24 31l138 369l188 -64l-132 -348h176q20 0 37 12t24 31l134 354l188 -64l-127 -333h179v-199h-201q-46 0 -61 -42l-54 -139h223v-199h-245q-20 0 -37 -12t-24 -31l-137 -366l-189 63l131 346h-176 q-20 0 -37 -12t-24 -31l-133 -353l-188 64l126 332h-180zM515 595h176q46 0 61 42l54 139h-176q-46 0 -61 -42z" />
<glyph unicode="$" horiz-adv-x="1191" d="M55 442h228q0 -126 86.5 -203.5t240.5 -77.5q137 0 215.5 56.5t78.5 148.5q0 101 -79 152t-283 101q-235 56 -344 153t-109 260q0 70 23.5 130t70.5 110t125.5 82.5t181.5 42.5q18 2 30.5 15t12.5 31v151h121v-155q0 -17 12 -30.5t29 -15.5q101 -14 177 -54t120.5 -98.5 t66.5 -129t22 -151.5h-227q0 117 -70 183.5t-202 66.5q-133 0 -199 -49.5t-66 -130.5q0 -84 72.5 -134t249.5 -95q91 -23 158.5 -47t133.5 -60t108 -78.5t67.5 -103.5t25.5 -135q0 -75 -24.5 -141t-74.5 -122.5t-136 -93.5t-200 -47q-18 -2 -30.5 -15t-12.5 -31v-150h-121 v154q0 18 -12 31.5t-29 15.5q-216 28 -326.5 154.5t-110.5 309.5z" />
<glyph unicode="%" horiz-adv-x="1503" d="M41 1063q0 151 83 238t213 87t213.5 -87t83.5 -238t-83.5 -238.5t-213.5 -87.5t-213 87t-83 239zM158 49l1091 1350l95 -77l-1092 -1350zM227 1063q0 -60 30 -93.5t80 -33.5q51 0 81 33.5t30 93.5t-30 93t-81 33t-80.5 -33t-29.5 -93zM868 308q0 152 83 239t213 87 t213 -87t83 -239q0 -151 -83 -238t-213 -87t-213 87t-83 238zM1053 308q0 -60 30 -93t81 -33t81 33t30 93t-30 93.5t-81 33.5t-81 -33.5t-30 -93.5z" />
<glyph unicode="&#x26;" d="M53 425q0 108 40 183t114 151q1 1 8.5 8t12.5 12q14 14 16 34t-9 37q-1 1 -6 8t-7 11q-55 88 -55 198q0 145 101.5 239.5t281.5 94.5q177 0 277 -100t98 -235q-1 -49 -13 -93.5t-27.5 -76t-46.5 -69t-54.5 -60.5t-66.5 -62q-17 -15 -19 -38t14 -40l260 -265q44 65 42 154 q-2 64 -28 116h198q31 -55 31 -176q0 -95 -46 -189q-6 -12 -22 -38q-22 -36 6 -66l82 -85l-147 -134l-99 104q-12 13 -29.5 15.5t-32.5 -5.5q-138 -77 -308 -77q-135 0 -245 36.5t-179 98.5t-105.5 141.5t-36.5 167.5zM264 438q0 -64 29 -116.5t77.5 -84.5t106 -49.5 t118.5 -17.5q133 -1 217 71l-414 427q-1 -2 -9.5 -10.5l-9.5 -9.5q-60 -55 -87.5 -100t-27.5 -110zM378 1057q-2 -44 14 -75.5t53 -69.5l97 -98q7 6 30.5 27t31.5 28.5t27.5 26.5t27 29t21 27t19 30t10 29.5t5.5 32.5q2 69 -44 113.5t-120 44.5q-78 0 -124 -43t-48 -102z " />
<glyph unicode="'" horiz-adv-x="356" d="M33 1151l74 78q13 15 4 32q-14 27 -13 57q2 39 29.5 68t66.5 34q45 6 81 -22t44 -73q10 -54 -26 -91l-164 -175z" />
<glyph unicode="(" horiz-adv-x="563" d="M84 686q0 627 289 1045h162q-252 -422 -252 -1045q0 -624 252 -1046h-162q-289 418 -289 1046z" />
<glyph unicode=")" horiz-adv-x="565" d="M18 -360q253 424 253 1046q0 621 -253 1045h162q290 -420 290 -1045q0 -626 -290 -1046h-162z" />
<glyph unicode="*" horiz-adv-x="552" d="M27 1150l33 103l124 -40q14 -5 26 4t12 24v130h108v-130q0 -15 12 -24t26 -4l124 40l33 -103l-123 -40q-14 -5 -19 -19t4 -26l77 -105l-88 -64l-76 106q-9 12 -24 12t-24 -12l-76 -106l-87 64l76 105q9 12 4 26t-19 19z" />
<glyph unicode="+" horiz-adv-x="811" d="M53 508v199h203q20 0 33.5 13.5t13.5 33.5v203h199v-203q0 -20 14 -33.5t33 -13.5h202v-199h-202q-19 0 -33 -14t-14 -33v-202h-199v202q0 19 -13.5 33t-33.5 14h-203z" />
<glyph unicode="," horiz-adv-x="356" d="M33 -62l74 78q13 15 4 33q-14 27 -13 56q2 39 29.5 68t66.5 34q45 6 81 -21.5t44 -72.5q10 -55 -26 -92l-164 -174z" />
<glyph unicode="-" horiz-adv-x="786" d="M41 508v199h698v-199h-698z" />
<glyph unicode="." horiz-adv-x="294" d="M33 100q0 47 33 80t80 33t80.5 -33t33.5 -80t-33.5 -80.5t-80.5 -33.5t-80 33.5t-33 80.5z" />
<glyph unicode="/" horiz-adv-x="882" d="M8 -199l691 1831l187 -71l-692 -1831z" />
<glyph unicode="0" horiz-adv-x="1292" d="M61 686q0 167 44 303.5t122.5 226t184.5 138t231 48.5t231 -48.5t184.5 -138t122.5 -226t44 -303.5t-44 -303.5t-122.5 -226.5t-184.5 -138.5t-231 -48.5t-231 48.5t-184.5 138.5t-122.5 226.5t-44 303.5zM289 686q0 -245 96.5 -381.5t257.5 -136.5t258 136.5t97 381.5 t-96.5 381t-258.5 136q-161 0 -257.5 -136t-96.5 -381z" />
<glyph unicode="1" horiz-adv-x="655" d="M6 892l239 239q86 86 86 207v33h227v-1371h-227v880q0 41 9 80l6 25l-4 1l-5 -22q-9 -40 -37 -68l-149 -149z" />
<glyph unicode="2" horiz-adv-x="1161" d="M68 0v180q0 263 258 400q34 18 155.5 80.5t149.5 77.5q110 59 164 115.5t54 140.5q0 95 -68.5 157t-180.5 62q-133 0 -204.5 -67t-69.5 -164q1 -55 30 -113l-186 -102q-2 4 -12 22t-18 35t-18 43t-15.5 58t-5.5 67q-1 81 28.5 153t88 130t158 92.5t227.5 34.5 q113 0 205 -33.5t149.5 -89.5t88 -127t30.5 -149q0 -69 -18 -127t-44.5 -98t-71.5 -78.5t-85 -63t-100 -55.5q-5 -2 -128 -65.5t-155 -80.5q-142 -75 -144 -200v-36h758v-199h-1020z" />
<glyph unicode="3" horiz-adv-x="1159" d="M55 455h228q0 -132 85.5 -205.5t207.5 -73.5q121 0 203 73.5t82 203.5q0 66 -25.5 120t-67.5 87t-92 51t-102 18h-249v176h197q76 0 121 59l144 208h-685v199h948v-190l-206 -297q-30 -38 -73 -34l-1 -4l12 -2q51 -9 111 -50q196 -136 196 -355q0 -114 -43 -205 t-115.5 -148t-164.5 -87t-194 -30q-107 0 -200.5 32.5t-164.5 92.5t-111.5 153.5t-40.5 207.5z" />
<glyph unicode="4" horiz-adv-x="1173" d="M37 231v149l537 811q52 83 52 180h304v-941h180v-199h-120q-25 0 -42.5 -17.5t-17.5 -42.5v-171h-227v231h-666zM296 430h347q25 0 42.5 17.5t17.5 42.5v462q0 47 10 88l5 19l-4 1q-1 -2 -2.5 -8t-1.5 -8q-8 -29 -38 -78z" />
<glyph unicode="5" horiz-adv-x="1163" d="M66 439h227q-1 -125 83.5 -198t199.5 -73q57 0 108.5 17t94 50t67.5 88t25 125q0 122 -85 199.5t-204 77.5q-102 0 -164.5 -38t-79.5 -73h-249l105 757h797v-199h-610l-41 -298q-8 -59 -36 -94l-3 -5l3 -2l17 25q98 136 304 136q202 0 338 -133t136 -336 q0 -120 -43.5 -216.5t-117.5 -156.5t-167 -91.5t-197 -31.5q-135 0 -249 53.5t-186.5 162.5t-72.5 254z" />
<glyph unicode="6" horiz-adv-x="1216" d="M66 686q0 348 146 532t420 184q112 0 201.5 -33t145 -89.5t85 -127t30.5 -148.5h-228q-3 81 -64.5 143.5t-183.5 62.5q-70 0 -126 -25.5t-91.5 -68t-58.5 -101.5t-32 -121t-8 -131q0 -17 -3 -30q-7 -46 -15 -71l-5 -20l4 -1l18 49q13 42 51 101q48 73 130 116.5t193 43.5 q204 0 339 -133t135 -345q0 -119 -42.5 -216.5t-114.5 -159.5t-164.5 -95t-195.5 -33q-268 0 -417 183t-149 534zM339 457q0 -127 86 -207.5t211 -80.5q124 0 204.5 79.5t80.5 205.5q0 131 -82 209.5t-207 78.5q-134 1 -213.5 -76.5t-79.5 -208.5z" />
<glyph unicode="7" horiz-adv-x="1060" d="M35 1172v199h995v-199q-42 0 -77.5 -23t-51.5 -61l-550 -1088h-245l570 1134q17 36 54 50l14 6l-1 3l-16 -7q-37 -14 -76 -14h-616z" />
<glyph unicode="8" horiz-adv-x="1232" d="M59 417q0 243 218 358q26 13 53 21q2 0 11.5 1t10.5 1l2 2h-1l-2 1h-1h-2l-1 1l-1 1q-13 0 -16 1q-13 2 -27 8q-67 30 -110.5 94t-43.5 153q0 148 132.5 245.5t332.5 97.5q125 0 230.5 -42.5t169.5 -122t64 -178.5q0 -91 -44 -155.5t-112 -93.5q-11 -5 -24 -7 q-6 -2 -16 -2l-1 -1l-1 -1h-2h-5l1 -3q15 0 21 -2q34 -10 54 -20q219 -116 219 -357q0 -138 -77.5 -241.5t-203 -155t-278.5 -51.5q-151 0 -275.5 53.5t-199.5 156.5t-75 238zM287 422q-1 -115 92 -184t233 -69t234 68t94 185q0 120 -92.5 186t-232.5 66q-144 0 -236 -66 t-92 -186zM376 1039q-1 -77 66.5 -120.5t170.5 -43.5t170.5 43.5t67.5 120.5t-67 120t-169 43q-105 0 -172 -42.5t-67 -120.5z" />
<glyph unicode="9" horiz-adv-x="1216" d="M63 898q0 119 42.5 216.5t114.5 159.5t164.5 95t195.5 33q268 0 417.5 -182.5t149.5 -533.5q0 -348 -146.5 -532.5t-420.5 -184.5q-112 0 -201 33t-144.5 89.5t-85 127t-30.5 148.5h227q3 -81 64.5 -143.5t183.5 -62.5q70 0 126 25.5t91.5 68t58.5 101.5t32 121t8 131 q0 16 3 30q6 39 16 71l4 20l-3 1l-18 -48q-13 -42 -51 -101q-48 -73 -131 -117t-193 -44q-204 0 -339 133t-135 345zM291 917q0 -131 82 -209.5t207 -78.5q135 -1 214.5 76.5t79.5 208.5q0 127 -86 207.5t-211 80.5q-124 0 -205 -79.5t-81 -205.5z" />
<glyph unicode=":" horiz-adv-x="294" d="M33 100q0 47 33 80t80 33t80.5 -33t33.5 -80t-33.5 -80.5t-80.5 -33.5t-80 33.5t-33 80.5zM33 718q0 47 33 80.5t80 33.5t80.5 -33.5t33.5 -80.5t-33.5 -80t-80.5 -33t-80 33t-33 80z" />
<glyph unicode=";" horiz-adv-x="362" d="M33 -62l74 78q13 15 4 33q-14 27 -13 56q2 39 29.5 68t66.5 34q45 6 81 -21.5t44 -72.5q10 -55 -26 -92l-164 -174zM98 718q0 47 33 80.5t80 33.5t80.5 -33.5t33.5 -80.5t-33.5 -80t-80.5 -33t-80 33t-33 80z" />
<glyph unicode="&#x3c;" horiz-adv-x="602" d="M51 509v198h59q72 0 134 62l171 171l140 -140l-153 -152q-38 -38 -81 -38h-52v-4h52q41 0 82 -39l152 -152l-140 -140l-171 172q-62 62 -134 62h-59z" />
<glyph unicode="=" horiz-adv-x="831" d="M63 254v199h698v-199h-698zM63 635v199h698v-199h-698z" />
<glyph unicode="&#x3e;" horiz-adv-x="602" d="M45 415l153 153q38 38 81 38h52v4h-52q-41 0 -81 38l-153 152l140 140l172 -171q62 -62 134 -62h58v-198h-58q-72 0 -134 -62l-172 -172z" />
<glyph unicode="?" horiz-adv-x="942" d="M20 1011q0 51 13 102t46 104t82 93.5t127.5 66t175.5 25.5q108 0 193.5 -34.5t136.5 -91t77.5 -125t26.5 -141.5q0 -153 -87.5 -245.5t-230.5 -128.5q-2 0 -8.5 -2t-8.5 -2q-14 -3 -23 -13.5t-9 -24.5v-188h-227v269q0 63 41.5 108t100.5 45h21q96 0 149.5 54t53.5 132 q0 82 -57 135.5t-146 53.5q-52 0 -92 -14t-63.5 -34.5t-38.5 -48t-20 -50.5t-5 -45h-228zM304 152q0 47 33.5 80t80.5 33t80 -33t33 -80t-33 -80.5t-80 -33.5t-80.5 33.5t-33.5 80.5z" />
<glyph unicode="@" horiz-adv-x="1642" d="M59 686q0 158 59.5 298.5t161 241.5t242 159.5t297.5 58.5t297.5 -59t241.5 -160t160.5 -242t59.5 -299q0 -174 -77 -295q-50 -77 -123 -124t-159 -47q-113 0 -178 90q-43 61 -43 122q0 40 8 68l5 16l-2 1l-14 -44q-43 -150 -220 -150q-139 0 -219.5 100.5t-80.5 260.5 t80.5 260.5t219.5 100.5q177 0 220 -148l14 -46l2 1l-5 16q-8 28 -8 66v90h165v-551q0 -44 23 -67t62 -20q73 6 108 92q38 92 38 206q0 159 -73 289t-204 205t-292 75t-292 -75t-204 -205t-73 -289q0 -160 68.5 -288.5t194.5 -203t287 -74.5q32 0 61.5 3.5t54.5 10 t41.5 11.5t35 12.5t21.5 8.5l106 -155q-3 -1 -38.5 -16.5t-70 -28t-93.5 -24t-116 -11.5q-209 0 -381 100t-270 274t-98 385zM651 682q0 -92 45.5 -149t123.5 -57q77 0 119.5 56.5t42.5 149.5t-42.5 149.5t-119.5 56.5q-78 0 -123.5 -57t-45.5 -149z" />
<glyph unicode="A" d="M6 0l478 1371h314l478 -1371h-237l-122 319h-553l-121 -319h-237zM421 518h440l-207 602q-11 36 -11 70v35h-4v-35q0 -34 -11 -70z" />
<glyph unicode="B" horiz-adv-x="1243" d="M109 0v1371h636q163 0 270 -99.5t107 -252.5q0 -151 -114 -253q-37 -32 -83 -32h-23v-3h29q43 0 78 -21q78 -48 126.5 -131.5t48.5 -190.5q0 -167 -108 -277.5t-276 -110.5h-691zM294 160l3 -3l24 24q18 18 42 18h383q87 0 149 57t62 157q0 92 -61 150.5t-150 58.5h-410 v-395q0 -25 -17 -42zM294 1211l25 -25q17 -17 17 -42v-334h379q76 0 128 52t52 123q0 83 -57 135t-139 52h-336q-24 0 -42 18l-24 24z" />
<glyph unicode="C" horiz-adv-x="1380" d="M55 686q0 160 50 295t137 227t207.5 143t259.5 51q231 0 403 -133.5t224 -361.5l-234 -33q-35 152 -141 240.5t-252 88.5q-187 0 -301.5 -142t-114.5 -375t114.5 -375t301.5 -142q146 0 253 90t141 244l234 -33q-51 -229 -223.5 -365t-404.5 -136q-139 0 -259.5 51.5 t-207.5 143.5t-137 227t-50 295z" />
<glyph unicode="D" horiz-adv-x="1302" d="M109 0v1371h488q139 0 258 -46t206.5 -132t137 -216.5t49.5 -290.5t-49.5 -291t-137 -216.5t-206.5 -132t-258 -46.5h-488zM294 160l3 -3l24 24q18 18 42 18h194q206 0 335 128.5t129 357.5q0 230 -129 358.5t-335 128.5h-194q-25 0 -42 17l-24 25l-3 -3l24 -25 q18 -18 18 -42v-917q0 -24 -18 -42z" />
<glyph unicode="E" horiz-adv-x="1142" d="M109 0v1371l977 1v-199h-723q-26 0 -43 17l-23 24l-3 -3l24 -25q18 -18 18 -42v-339h664v-199h-664v-379q0 -24 -18 -42l-24 -25l3 -3l24 24q18 18 42 18h723v-199h-977z" />
<glyph unicode="F" horiz-adv-x="1079" d="M109 0v1371l946 1v-199h-692q-26 0 -43 17l-23 24l-3 -3l24 -25q18 -18 18 -42v-339h617v-199h-617v-606h-227z" />
<glyph unicode="G" horiz-adv-x="1443" d="M55 686q0 160 50 295t137 227t207.5 143t259.5 51q235 0 408.5 -132t218.5 -362l-234 -34q-26 152 -135.5 240.5t-257.5 88.5q-187 0 -301.5 -142t-114.5 -375t114.5 -375t301.5 -142q176 0 277 102t124 281h-280v172h535v-724h-188v248q0 43 7 81l12 62l-4 1l-12 -61 q-10 -48 -21 -79q-105 -283 -473 -283q-184 0 -328 92.5t-223.5 255.5t-79.5 369z" />
<glyph unicode="H" horiz-adv-x="1331" d="M109 0v1371h227v-566h658v566h227v-1371h-227v606h-658v-606h-227z" />
<glyph unicode="I" horiz-adv-x="446" d="M109 0v1371h227v-1371h-227z" />
<glyph unicode="J" horiz-adv-x="1040" d="M25 452v99h227v-107q0 -126 64.5 -201t167.5 -75q109 0 170.5 79t61.5 194v930h227v-910q0 -105 -26.5 -192.5t-80.5 -155.5t-142.5 -106t-205.5 -38q-116 0 -206.5 40t-145.5 108.5t-83 153.5t-28 181z" />
<glyph unicode="K" horiz-adv-x="1251" d="M109 0v1371h227v-540q0 -44 -15 -80l-17 -48l4 -1l16 47q17 44 39 72l555 550h324l-333 -326q-27 -35 -35 -79q-2 -14 -3 -28q0 -30 11 -59l331 -879h-243l-303 803l-331 -328v-475h-227z" />
<glyph unicode="L" horiz-adv-x="1046" d="M109 0v1371h227v-1172h707v-199h-934z" />
<glyph unicode="M" horiz-adv-x="1656" d="M109 0v1371h314l388 -896q15 -48 15 -91v-45h4v45q0 43 15 91l388 896h314v-1371h-227v982q0 21 5 48l5 28l-3 1l-5 -21q-6 -30 -15 -56l-417 -982h-124l-417 982q-9 26 -15 56l-5 21l-3 -1l5 -28q5 -27 5 -48v-982h-227z" />
<glyph unicode="N" horiz-adv-x="1292" d="M109 0v1371h280l552 -969q14 -33 19 -60l4 -18h3l-5 26q-6 29 -6 59v962h227v-1371h-281l-551 969q-14 33 -19 60l-4 18h-4l6 -26q6 -29 6 -59v-962h-227z" />
<glyph unicode="O" horiz-adv-x="1419" d="M55 686q0 160 50 295t137 227t207.5 143t259.5 51t259.5 -51t207.5 -143t137 -227t50 -295t-50 -295t-137 -227t-207.5 -143.5t-259.5 -51.5t-259.5 51.5t-207.5 143.5t-137 227t-50 295zM293 686q0 -233 114.5 -375t301.5 -142t301.5 142t114.5 375t-114.5 375 t-301.5 142t-301.5 -142t-114.5 -375z" />
<glyph unicode="P" horiz-adv-x="1218" d="M109 0v1371h641q189 0 311.5 -124.5t122.5 -310.5q0 -184 -122.5 -309.5t-311.5 -125.5h-414v-501h-227zM294 1211l26 -26q16 -18 16 -40v-445h386q97 0 166 62.5t69 173.5q0 110 -69.5 173t-165.5 63h-360q-24 0 -40 16l-25 26z" />
<glyph unicode="Q" horiz-adv-x="1419" d="M55 686q0 160 50 295t137 227t207.5 143t259.5 51t259.5 -51t207.5 -143t137 -227t50 -295q0 -311 -186 -517q-18 -20 -20 -48t12 -51l62 -106l-172 -100l-60 103q-15 25 -42.5 37.5t-53.5 3.5q-113 -39 -194 -39q-139 0 -259.5 51.5t-207.5 143.5t-137 227t-50 295z M293 686q0 -233 114.5 -375t301.5 -142t301.5 142t114.5 375t-114.5 375t-301.5 142t-301.5 -142t-114.5 -375z" />
<glyph unicode="R" horiz-adv-x="1265" d="M109 0v1371h691q168 0 276 -110t108 -274q0 -105 -43.5 -185.5t-111.5 -123.5q-42 -27 -82 -31l-26 -1v-3l31 1h11q57 0 99 -38q67 -59 82 -182q6 -44 51 -424h-229q-8 64 -24.5 207.5t-21.5 186.5q-20 162 -160 167h-424v-561h-227zM294 1211l26 -26q16 -16 16 -40v-396 h410q86 0 148.5 57t62.5 154q0 100 -62 156t-149 56h-384q-23 0 -40 17l-25 25z" />
<glyph unicode="S" horiz-adv-x="1185" d="M53 442h228q0 -127 86.5 -204t240.5 -77q137 0 215.5 56.5t78.5 148.5q0 101 -79 152t-283 101q-235 56 -344 153t-109 260q0 77 28.5 142t86 116.5t154.5 81t224 29.5q130 0 228 -35t156 -96.5t86.5 -139t28.5 -169.5h-227q0 116 -70 182.5t-202 66.5q-133 0 -199 -49.5 t-66 -130.5q0 -84 72 -134t249 -95q91 -23 159 -47t134 -60t108 -78.5t67.5 -103.5t25.5 -135q0 -82 -29 -152.5t-88 -129t-161.5 -92t-238.5 -33.5q-140 0 -249 36.5t-176 101t-101 149t-34 185.5z" />
<glyph unicode="T" horiz-adv-x="1028" d="M2 1172v199h1023v-199h-398v-1172h-227v1172h-398z" />
<glyph unicode="U" horiz-adv-x="1249" d="M92 488v883h228v-897q0 -139 85.5 -222t218.5 -83q140 0 222 87t82 215v900h227v-883q0 -224 -146.5 -371.5t-384.5 -147.5t-385 147.5t-147 371.5z" />
<glyph unicode="V" horiz-adv-x="1247" d="M4 1371h237l368 -1096q12 -37 12 -78v-35h4v35q0 41 12 78l368 1096h236l-463 -1371h-311z" />
<glyph unicode="W" horiz-adv-x="1820" d="M10 1371h237l261 -902q14 -51 14 -102v-40h4v39q0 52 15 101l275 904h187l275 -904q15 -50 15 -101v-39h4v40q0 51 14 102l261 902h237l-399 -1371h-220l-264 876q-15 60 -15 101v50h-3v-50q0 -45 -14 -101l-265 -876h-220z" />
<glyph unicode="X" horiz-adv-x="1294" d="M12 0l405 618q18 32 18 68.5t-18 67.5l-404 617h260l353 -526q19 -33 19 -69v-22h4v22q0 36 19 69l353 526h261l-405 -617q-18 -32 -18 -68t18 -68l405 -618h-260l-354 526q-19 33 -19 70v22h-4v-22q0 -37 -19 -70l-354 -526h-260z" />
<glyph unicode="Y" horiz-adv-x="1249" d="M-10 1371h260l353 -557q19 -33 19 -69v-23h4v23q0 36 19 69l354 557h260l-474 -750q-47 -79 -47 -172v-449h-227v449q0 91 -48 172z" />
<glyph unicode="Z" horiz-adv-x="1157" d="M35 0v243l786 901q28 27 60 35l41 12l-1 4l-56 -16q-27 -8 -52 -8h-715v199h1015v-243l-785 -900q-27 -25 -62 -36l-42 -12l1 -4l57 17q24 7 52 7h779v-199h-1078z" />
<glyph unicode="[" horiz-adv-x="438" d="M98 -360v2091h305v-199h-36q-29 0 -49.5 -21t-20.5 -49v-1553q0 -29 20.5 -49.5t49.5 -20.5h36v-199h-305z" />
<glyph unicode="\" horiz-adv-x="878" d="M-4 1561l186 70l691 -1831l-186 -70z" />
<glyph unicode="]" horiz-adv-x="440" d="M31 -161h36q28 0 48.5 20.5t20.5 49.5v1553q0 29 -20.5 49.5t-48.5 20.5h-36v199h304v-2091h-304v199z" />
<glyph unicode="^" horiz-adv-x="462" d="M33 1216l104 104q31 31 31 76v53h122v-53q0 -44 32 -76l104 -104l-94 -94l-103 103l-102 -103z" />
<glyph unicode="_" horiz-adv-x="978" d="M29 -161h923v-199h-923v199z" />
<glyph unicode="`" horiz-adv-x="389" d="M33 1358l96 91q19 -20 74.5 -78.5t101.5 -108.5l46 -49l-96 -91z" />
<glyph unicode="a" horiz-adv-x="1038" d="M59 258v8q0 220 214 292q69 23 216 55q23 5 65 13t63 13.5t34 10.5q48 20 48 72q0 63 -50.5 105.5t-139.5 43.5h-3q-114 0 -169 -67q-31 -37 -31 -88q0 -20 5 -42l-205 -27q-7 35 -7 67q0 116 84 204q117 123 329 123q197 1 300 -103q101 -102 101 -284v-7v-461 q0 -5 4 -9.5t9 -4.5h65v-173h-160q-42 0 -66.5 24.5t-24.5 62.5q0 72 1 85q1 40 9 79l3 15l-4 1q-4 -26 -6 -34q-15 -75 -53 -125q-102 -138 -296 -138q-151 0 -242 84.5t-93 204.5zM271 274q6 -55 50 -89.5t115 -34.5q124 0 196 74.5t72 184.5v107q-16 -20 -82 -34 l-52.5 -10.5t-83 -17t-69.5 -13.5q-78 -15 -115 -61q-32 -40 -32 -90q0 -8 1 -16z" />
<glyph unicode="b" horiz-adv-x="1130" d="M98 0v1371h210v-494q0 -50 -12 -98l-7 -24l3 -1l20 68q8 29 20 54.5t36.5 57.5t57 54.5t85 38t116.5 15.5q200 0 321 -150.5t121 -385.5t-121 -386t-321 -151q-64 0 -116.5 15.5t-85 38.5t-57.5 55t-36.5 58.5t-19.5 55.5l-20 65l-3 -1l7 -24q12 -48 12 -97v-135h-210z M319 506q0 -157 69 -252.5t196 -95.5q128 0 202 96.5t74 251.5t-74 251.5t-202 96.5q-127 0 -196 -95.5t-69 -252.5z" />
<glyph unicode="c" horiz-adv-x="1073" d="M57 505q0 240 135 388t350 148q190 0 319.5 -117t157.5 -315l-208 -21q-19 122 -89.5 193t-179.5 71q-128 0 -201.5 -96t-73.5 -251t73.5 -251.5t201.5 -96.5q108 0 179 71.5t90 192.5l208 -21q-28 -198 -157.5 -315t-319.5 -117q-215 0 -350 148.5t-135 388.5z" />
<glyph unicode="d" horiz-adv-x="1130" d="M59 506q0 235 121 385.5t321 150.5q64 0 116.5 -15.5t85 -38t57 -54.5t36.5 -57.5t20 -54.5l20 -68l4 1l-7 24q-12 48 -12 98v494h210v-1371h-210v135q0 49 12 97l7 24l-4 1l-19 -65q-8 -29 -20 -55.5t-36.5 -58.5t-57.5 -55t-85.5 -38.5t-116.5 -15.5q-200 0 -321 151 t-121 386zM269 506q0 -155 73.5 -251.5t201.5 -96.5q127 0 196.5 95.5t69.5 252.5t-69.5 252.5t-196.5 95.5q-128 0 -201.5 -96.5t-73.5 -251.5z" />
<glyph unicode="e" horiz-adv-x="1083" d="M57 505q0 240 135 388t350 148t350.5 -148t135.5 -388q0 -24 -6 -66h-744q11 -125 80.5 -203.5t183.5 -78.5q93 0 156.5 53.5t89.5 144.5l212 -38q-47 -161 -169 -255t-289 -94q-215 0 -350 148.5t-135 388.5zM279 588h527q-15 118 -84.5 191t-179.5 73 q-109 0 -178.5 -72.5t-84.5 -191.5z" />
<glyph unicode="f" horiz-adv-x="612" d="M27 823v189h142q31 0 81 -11q3 -1 13 -3.5t13 -3.5l1 4q-20 6 -38 18q-25 18 -33 40q-26 72 -26 155q0 70 40.5 115t115.5 45h179l-1 -173h-84q-25 0 -41.5 -19.5t-16.5 -49.5l11 -117h208v-189h-190v-823h-210v823h-164z" />
<glyph unicode="g" horiz-adv-x="1134" d="M59 505q0 235 121 385.5t321 150.5q64 0 116.5 -15.5t85 -38t57 -54.5t36.5 -57.5t20 -54.5l20 -68l4 1l-7 24q-12 48 -12 98v134h210v-854q0 -71 24.5 -148t24.5 -139q0 -113 -68 -171.5t-216 -58.5h-579v174h510h11q125 0 125 92q0 26 -21 86t-21 105q0 55 1 64 q1 34 11 71l7 24l-4 1l-19 -65q-8 -29 -20 -55.5t-36.5 -58.5t-57.5 -55t-85.5 -38.5t-116.5 -15.5q-200 0 -321 151t-121 386zM269 505q0 -155 73.5 -251.5t201.5 -96.5q127 0 196.5 95.5t69.5 252.5q0 156 -69.5 251.5t-196.5 95.5q-128 0 -201.5 -96t-73.5 -251z" />
<glyph unicode="h" horiz-adv-x="1075" d="M98 -1v1371h210v-471q0 -50 -12 -98l-7 -24l3 -1l13 48q23 83 82 135q95 82 230 82q181 0 276.5 -120t95.5 -339v-583h-210v537q0 156 -56 236t-176 80q-111 0 -175 -81.5t-64 -219.5v-552h-210z" />
<glyph unicode="i" horiz-adv-x="407" d="M90 1242q0 47 33.5 80.5t80.5 33.5t80 -33.5t33 -80.5t-33 -80t-80 -33t-80.5 33t-33.5 80zM99 -1v1012h210v-1012h-210z" />
<glyph unicode="j" horiz-adv-x="407" d="M-80 -171h162q16 0 16 16v1167h209v-1251q0 -50 -35 -85t-85 -35h-267v188zM89 1243q0 47 33 80.5t80 33.5t80.5 -33.5t33.5 -80.5t-33.5 -80t-80.5 -33t-80 33t-33 80z" />
<glyph unicode="k" horiz-adv-x="1034" d="M98 -1v1371h210v-1063h4l1 38q0 51 29 97l367 568h250l-209 -322q-26 -41 -26 -84q0 -36 18 -72l274 -533h-233l-213 409l-264 -409h-208z" />
<glyph unicode="l" horiz-adv-x="507" d="M96 119v1251h210v-1167q0 -15 16 -15h162v-189h-267q-50 0 -85.5 35t-35.5 85z" />
<glyph unicode="m" horiz-adv-x="1665" d="M98 -1v1012h210v-112q0 -50 -12 -98l-7 -24l3 -1l14 49q15 54 52 101q92 115 253 115q206 0 282 -178q10 -20 10 -44q0 -13 -3 -26l-3 -16l4 -1q5 26 6 30q9 41 38 87q95 148 277 148q160 0 257 -106t97 -314v-622h-209v560q0 147 -55.5 220t-151.5 73q-104 0 -161 -81 t-57 -220v-552h-210v552q0 301 -206 301q-104 0 -161 -81t-57 -220v-552h-210z" />
<glyph unicode="n" horiz-adv-x="1075" d="M98 -1v1012h210v-112q0 -50 -12 -98l-7 -24l3 -1l14 51q16 57 48 98q91 116 263 116q177 0 274.5 -121t97.5 -338v-583h-210v537q0 154 -58.5 235t-173.5 81q-111 0 -175 -81.5t-64 -219.5v-552h-210z" />
<glyph unicode="o" horiz-adv-x="1085" d="M57 505q0 240 135 388t350 148t350.5 -148t135.5 -388t-135.5 -388.5t-350.5 -148.5t-350 148.5t-135 388.5zM267 505q0 -155 73.5 -251.5t201.5 -96.5t202 96.5t74 251.5t-74 251t-202 96t-201.5 -96t-73.5 -251z" />
<glyph unicode="p" horiz-adv-x="1130" d="M98 -361v1371h210v-134q0 -50 -12 -98l-7 -24l3 -1l20 66q62 222 315 222q200 0 321 -150.5t121 -385.5t-121 -386t-321 -151q-64 0 -116.5 15.5t-85 38t-57 54.5t-36.5 57.5t-20 54.5l-20 68l-3 -1l7 -24q12 -48 12 -98v-494h-210zM319 505q0 -157 69 -252.5t196 -95.5 q128 0 202 96.5t74 251.5t-74 251t-202 96q-127 0 -196 -95t-69 -252z" />
<glyph unicode="q" horiz-adv-x="1130" d="M59 505q0 235 121 385.5t321 150.5q64 0 116.5 -15.5t85.5 -38t57.5 -54.5t36.5 -58.5t20 -55.5l19 -66l4 1l-7 24q-12 48 -12 98v134h210v-1371h-210v494q0 50 12 98l7 24l-4 1l-20 -68q-8 -29 -20 -54.5t-36.5 -57.5t-57 -54.5t-85 -38t-116.5 -15.5q-200 0 -321 151 t-121 386zM269 505q0 -155 73.5 -251.5t201.5 -96.5q127 0 196.5 95.5t69.5 252.5t-69.5 252t-196.5 95q-128 0 -201.5 -96t-73.5 -251z" />
<glyph unicode="r" horiz-adv-x="761" d="M98 -1v1011h210v-179q0 -52 -7 -95l-4 -27l3 -1l7 44q11 58 12 63q16 73 70 142q66 84 149 84q96 0 140 -70t44 -190v-176h-209l-1 111q0 123 -64 123q-36 0 -69 -54.5t-52 -138t-19 -168.5v-479h-210z" />
<glyph unicode="s" horiz-adv-x="937" d="M55 327h210q0 -20 4 -41.5t18 -48t36 -46.5t61.5 -34t90.5 -14q88 0 141 36t53 104q0 63 -63 102t-195 72q-76 19 -130 40.5t-103 57t-74 88.5t-25 124q0 117 95.5 195.5t283.5 78.5q193 0 289 -92t96 -236h-194q0 70 -43 113.5t-139 43.5q-89 0 -133.5 -35.5 t-44.5 -88.5q0 -35 18.5 -61.5t58.5 -45t64 -26.5t73 -20q4 -1 6.5 -1.5t6 -1.5t6.5 -2q43 -11 71.5 -19.5t69.5 -24.5t68 -31.5t57.5 -40t48.5 -52.5t30 -66.5t12 -83.5q0 -133 -100.5 -217t-294.5 -84q-110 0 -195 30t-134.5 81t-74.5 113.5t-25 133.5z" />
<glyph unicode="t" horiz-adv-x="649" d="M27 838v166h94q34 0 57.5 23.5t23.5 57.5v286h187v-359h171v-174h-171v-633q0 -16 15 -16h206v-189h-310q-50 0 -85.5 35.5t-35.5 85.5v717h-152z" />
<glyph unicode="u" horiz-adv-x="1073" d="M84 428v584h210v-537q0 -317 232 -317q111 0 175 81.5t64 219.5v553h209v-1012h-209v111q0 50 12 98l7 24l-4 1l-20 -68q-12 -33 -32.5 -63.5t-55 -62.5t-90.5 -51.5t-126 -19.5q-181 0 -276.5 120t-95.5 339z" />
<glyph unicode="v" horiz-adv-x="1001" d="M16 1012h217l256 -812q9 -33 9 -68v-41h4v41q0 31 10 68l256 812h216l-322 -1012h-324z" />
<glyph unicode="w" horiz-adv-x="1544" d="M16 1012h217l205 -646q11 -36 11 -80v-37h5v37q0 44 11 80l205 646h203l205 -646q12 -39 12 -80v-37h4v37q0 41 12 80l205 646h216l-317 -1012h-228l-195 636q-13 44 -13 83v31h-4v-31q0 -39 -13 -83l-196 -636h-227z" />
<glyph unicode="x" horiz-adv-x="1003" d="M23 0l272 439q18 34 17.5 67.5t-17.5 66.5l-272 439h233l231 -352q12 -24 12 -50v-36h4v36q0 24 13 50l231 352h233l-272 -439q-18 -34 -18 -67.5t18 -66.5l272 -439h-233l-231 352q-13 26 -13 50v36h-4v-36q0 -26 -12 -50l-231 -352h-233z" />
<glyph unicode="y" horiz-adv-x="1017" d="M10 1012h226l258 -646q12 -30 12 -64v-37h4v37q0 34 12 64l258 646h226l-554 -1371h-225l141 350q13 34 13 68.5t-13 68.5z" />
<glyph unicode="z" horiz-adv-x="937" d="M39 0v179l550 621q26 22 52 29l47 14l-1 3l-56 -16q-22 -7 -51 -7h-471v189h777v-179l-544 -616q-31 -27 -59 -35l-47 -13l1 -4l57 16q27 8 54 8h538v-189h-847z" />
<glyph unicode="{" horiz-adv-x="483" d="M57 579v199q38 19 61.5 57.5t23.5 83.5v455q0 39 7 76t16.5 66.5t26 60t29.5 50.5t34 45t32 36l31 31l23 23l126 -149q-126 -132 -126 -263v-481q0 -33 -10 -65.5t-20 -50t-27.5 -43.5t-20.5 -31q3 -5 20.5 -31t27.5 -43.5t20 -50t10 -65.5v-481q0 -131 126 -263 l-126 -149l-23 23l-31 31t-32 36t-34 45t-29.5 50.5t-26 60t-16.5 66.5t-7 76v455q0 45 -23.5 83t-61.5 57z" />
<glyph unicode="|" horiz-adv-x="378" d="M86 -360v2091h199v-2091h-199z" />
<glyph unicode="}" horiz-adv-x="503" d="M29 1613l126 149q2 -2 23.5 -23t31 -31t32 -36t34 -44.5t29 -50t27 -60t16.5 -66t7 -76.5l2 -455q0 -45 24 -83.5t62 -56.5v-199q-38 -19 -61 -57.5t-23 -83.5l2 -455q0 -44 -7 -85t-23 -77t-29.5 -62.5t-38.5 -56.5t-36 -43t-36.5 -38.5l-26.5 -26.5l-126 149 q125 134 124 263l-3 481q0 33 10 65.5t20 50.5t27.5 44t20.5 31q-4 6 -21 31t-27.5 43t-20.5 50t-10 65l-2 482q-1 130 -127 262z" />
<glyph unicode="~" horiz-adv-x="649" d="M33 1238l56 44q89 65 203 30q58 -19 69 -25q32 -18 68 -16t65 24l45 35l71 -101l-54 -41q-81 -61 -193 -32q-58 15 -79 26q-31 18 -67.5 16t-65.5 -24l-48 -37z" />
<glyph unicode="&#xa1;" horiz-adv-x="348" d="M53 -233q0 63 1 94q3 109 21 283q17 167 20 274q1 38 1 104v107h150v-107q0 -65 1 -103q1 -36 4 -81t8.5 -103t7.5 -91q2 -29 10.5 -134.5t9.5 -148.5q2 -62 2 -94v-126h-236v126zM57 884q0 47 33.5 80t80.5 33t80 -33t33 -80t-33 -80.5t-80 -33.5t-80.5 33.5t-33.5 80.5 z" />
<glyph unicode="&#xa2;" horiz-adv-x="1064" d="M51 506q0 208 103.5 349.5t275.5 175.5q18 4 29.5 18t11.5 32v154h122v-152q0 -19 12 -33t30 -17q152 -28 252.5 -140t125.5 -283l-208 -21q-19 122 -89.5 193t-179.5 71q-128 0 -201.5 -96t-73.5 -251t73.5 -251.5t201.5 -96.5q109 0 179.5 71t89.5 193l208 -21 q-25 -170 -125.5 -282t-252.5 -140q-18 -3 -30 -17t-12 -33v-152h-122v153q0 18 -11.5 32t-29.5 18q-172 34 -275.5 176t-103.5 350z" />
<glyph unicode="&#xa3;" horiz-adv-x="1269" d="M72 0v199q25 1 50.5 13.5t51 35.5t43.5 63.5t22 92.5q6 88 -17 193q-3 17 -16 28t-30 11h-104v121h68q14 0 23 11.5t5 25.5q-32 119 -32 217q0 78 28.5 146t86 123.5t157 88t229.5 32.5q109 0 197 -25t145 -67t95.5 -100.5t55 -121.5t16.5 -134h-199q-4 120 -81 189.5 t-229 67.5q-150 -2 -226 -69.5t-76 -169.5q0 -78 33 -181q10 -33 45 -33h321v-121h-278q-15 0 -25 -12t-8 -27q25 -94 24 -167q0 -27 -6 -67q55 -50 89 -78t83 -60t98.5 -46t104.5 -14q53 0 95.5 15t69 39t43 56.5t21 66t0.5 68.5l173 1q12 -82 -4.5 -159t-61 -141 t-129.5 -103t-200 -39q-63 0 -118.5 12t-106.5 37.5t-86 48t-86 60.5q-14 10 -64 50q-47 -90 -128 -133.5t-162 -43.5z" />
<glyph unicode="&#xa4;" horiz-adv-x="1226" d="M51 211l120 120q35 35 14 78q-60 125 -60 276q0 153 60 276q10 20 6 41.5t-20 37.5l-120 120l86 86l113 -113q15 -15 36.5 -17t38.5 11q123 95 285 95t286 -95q17 -13 38.5 -11t36.5 17l113 113l86 -86l-120 -120q-16 -16 -20 -37.5t6 -41.5q59 -121 59 -276t-59 -276 q-21 -43 14 -78l120 -120l-86 -86l-113 113q-15 15 -36.5 17t-38.5 -11q-124 -95 -286 -95t-285 95q-17 13 -38.5 11t-36.5 -17l-113 -113zM335 685q0 -155 73.5 -251t201.5 -96t202 96t74 251t-74 251.5t-202 96.5t-201.5 -96.5t-73.5 -251.5z" />
<glyph unicode="&#xa5;" horiz-adv-x="1280" d="M2 1371h260l354 -526q18 -31 18 -69v-23h5v23q0 38 18 69l354 526h260l-435 -677q-10 -13 -21 -40t-11 -41l-7 -24q-3 -12 4.5 -22t20.5 -10h227v-75h-257q-12 0 -20.5 -7.5t-10.5 -19.5q-1 -4 -3.5 -45.5t-2.5 -43.5q-2 -12 7 -21.5t22 -9.5h265v-75h-267q-14 0 -23 -9 t-9 -23v-228h-227v228q0 14 -9.5 23t-22.5 9h-267v75h265q13 0 22 9.5t7 21.5q0 2 -2.5 43.5t-3.5 45.5q-2 12 -10.5 19.5t-20.5 7.5h-257v75h227q13 0 20.5 10t4.5 22l-6 23q0 14 -11 41t-21 40z" />
<glyph unicode="&#xa7;" horiz-adv-x="964" d="M66 325h209q0 -26 8.5 -54t29 -59.5t65.5 -51.5t108 -20q87 0 140 36.5t53 104.5q0 62 -63 101t-195 72q-75 19 -129.5 41t-103 57.5t-73.5 89t-25 123.5q0 79 42 138q11 17 11 38t-11 37q-42 62 -42 151q0 117 95.5 195t283.5 78q193 0 288.5 -91.5t95.5 -236.5h-194 q0 70 -43 113.5t-139 43.5q-89 0 -133.5 -35t-44.5 -88q0 -35 20 -62.5t56.5 -45t67.5 -27.5t72 -20q11 -3 17 -4q62 -16 101 -29t93.5 -39.5t86 -57t54.5 -80.5t23 -112q0 -81 -41 -148q-22 -37 1 -71q40 -62 40 -145q0 -133 -101 -216.5t-295 -83.5q-110 0 -194.5 30 t-134.5 81t-74.5 113.5t-24.5 133.5zM299 744q0 -27 13 -49t29 -35.5t44 -26.5t42.5 -17.5t41.5 -12.5q84 -23 134 -45q15 -7 31 -2.5t25 18.5q20 29 20 70q0 54 -43 89.5t-141 61.5q-60 17 -108 36q-30 12 -51 -6q-37 -30 -37 -81z" />
<glyph unicode="&#xa8;" horiz-adv-x="628" d="M33 1262q0 47 33 80.5t80 33.5t80.5 -33.5t33.5 -80.5t-33.5 -80t-80.5 -33t-80 33t-33 80zM366 1262q0 47 33 80.5t80 33.5t80.5 -33.5t33.5 -80.5t-33.5 -80t-80.5 -33t-80 33t-33 80z" />
<glyph unicode="&#xa9;" horiz-adv-x="1632" d="M53 686q0 158 59 298.5t160.5 241.5t242 159.5t297.5 58.5t297.5 -58.5t242 -159.5t161 -241.5t59.5 -298.5t-59.5 -299t-161 -241.5t-242 -159.5t-297.5 -59t-297.5 59t-242 159.5t-160.5 241.5t-59 299zM224 686q0 -123 44.5 -232t122 -187.5t187 -124t234.5 -45.5 q167 0 302 77.5t211 212.5t76 299t-76 298.5t-211 212t-302 77.5t-302 -77.5t-210.5 -212t-75.5 -298.5zM454 685q0 178 101 288.5t261 110.5q142 0 238.5 -87t116.5 -235l-173 -19q-13 83 -60.5 131.5t-121.5 48.5q-87 0 -137.5 -66t-50.5 -172t50 -171.5t137 -65.5 q74 0 122 48.5t61 131.5l173 -20q-20 -148 -116.5 -234.5t-238.5 -86.5q-160 0 -261 110t-101 288z" />
<glyph unicode="&#xaa;" horiz-adv-x="528" d="M49 1044q-4 100 93 139q31 13 89 25q50 11 60 14q19 6 21 26v7q-1 45 -57 45q-36 0 -51 -22q-10 -16 -6 -39l-129 -17q-15 75 34 127q48 53 151 53q93 0 142 -44t48 -123v-193q0 -10 10 -10h16v-104h-71q-28 0 -43.5 16t-15.5 41v21q2 24 4 34l2 6l-2 1q-4 -21 -5 -25 q-5 -25 -17 -45q-39 -63 -127 -63q-65 0 -104.5 37.5t-41.5 92.5zM181 1060q2 -18 15.5 -29.5t35.5 -11.5q38 0 62.5 28.5t24.5 63.5v26q-9 -8 -39 -14q-7 -2 -24 -5.5t-28 -5.5q-50 -12 -47 -52z" />
<glyph unicode="&#xab;" horiz-adv-x="854" d="M8 608q39 0 89 74l145 213h234l-166 -245q-27 -40 -65 -40h-16v-5h16q38 0 65 -40l166 -245h-234l-145 214q-50 74 -89 74zM366 608q11 0 21.5 5t20 15.5t15 17t14.5 21t10 15.5l144 213h234l-165 -245q-27 -40 -65 -40h-16v-5h16q38 0 65 -40l165 -245h-234l-144 214 q-1 1 -10 15.5t-14.5 21t-15 17t-20 15.5t-21.5 5z" />
<glyph unicode="&#xac;" horiz-adv-x="808" d="M49 635v199h698v-456h-199v257h-499z" />
<glyph unicode="&#xad;" horiz-adv-x="0" />
<glyph unicode="&#xae;" horiz-adv-x="903" d="M53 997q0 176 111 290.5t285 114.5t285 -114.5t111 -290.5t-111 -290.5t-285 -114.5t-285 114.5t-111 290.5zM142 997q0 -136 85.5 -225t221.5 -89t222 89t86 225t-86 225t-222 89t-221.5 -89t-85.5 -225zM290 793v408h219q50 0 88 -35t38 -96q0 -70 -42 -99 q-10 -6 -15 -8q16 -1 26 -13q17 -20 22 -53q9 -71 13 -104h-99q-1 12 -3 25.5t-4.5 32.5t-4.5 33q-7 44 -43 46h-96v-137h-99zM389 1012h99q17 0 32.5 12.5t15.5 38.5q0 27 -15.5 39.5t-32.5 12.5h-99v-103z" />
<glyph unicode="&#xb0;" horiz-adv-x="528" d="M49 1158q0 109 59 176.5t153 67.5t153 -67.5t59 -176.5t-59 -176.5t-153 -67.5t-153 67.5t-59 176.5zM185 1158q0 -49 20.5 -79.5t55.5 -30.5t56 30.5t21 79.5t-20.5 79t-56.5 30q-35 0 -55.5 -30t-20.5 -79z" />
<glyph unicode="&#xb1;" horiz-adv-x="839" d="M68 57v199h698v-199h-698zM68 700v199h202q20 0 33.5 13.5t13.5 33.5v203h199v-203q0 -20 14 -33.5t33 -13.5h203v-199h-203q-19 0 -33 -14t-14 -33v-202h-199v202q0 19 -13.5 33t-33.5 14h-202z" />
<glyph unicode="&#xb4;" horiz-adv-x="389" d="M33 1213l222 236l96 -91l-46 -50q-46 -49 -101.5 -107.5t-74.5 -78.5z" />
<glyph unicode="&#xb5;" horiz-adv-x="1044" d="M76 -223v1235h209v-537q0 -317 233 -317q111 0 175 81.5t64 219.5v553h209v-1012h-209v111q0 50 12 98l7 24l-4 1l-20 -68q-11 -29 -28.5 -56.5t-45.5 -56.5t-70.5 -48.5t-93.5 -24.5q-147 -13 -229 89v-292h-209z" />
<glyph unicode="&#xb6;" horiz-adv-x="1015" d="M37 1013q0 167 97 262.5t250 95.5h199v-1371h-199v655q-153 0 -250 95.5t-97 262.5zM710 0v1371h199v-1371h-199z" />
<glyph unicode="&#xb7;" horiz-adv-x="444" d="M33 608q0 77 55 132t132 55t132 -55t55 -132t-55 -132t-132 -55t-132 55t-55 132z" />
<glyph unicode="&#xb8;" horiz-adv-x="247" d="M33 0h93q89 -44 89 -111q0 -44 -30 -68.5t-84 -24.5h-68v98h30q42 0 42 36q0 19 -18 36.5t-36 25.5z" />
<glyph unicode="&#xba;" horiz-adv-x="528" d="M49 1158q0 109 59 176.5t153 67.5t153 -67.5t59 -176.5t-59 -176.5t-153 -67.5t-153 67.5t-59 176.5zM185 1158q0 -49 20.5 -79.5t55.5 -30.5t56 30.5t21 79.5t-20.5 79t-56.5 30q-35 0 -55.5 -30t-20.5 -79z" />
<glyph unicode="&#xbb;" horiz-adv-x="854" d="M23 320l165 245q27 40 65 40h16v5h-16q-38 0 -65 40l-165 245h234l144 -214q2 -2 8.5 -12.5t10.5 -16.5t12 -15.5t15 -15t16.5 -9.5t18.5 -4q-11 0 -21.5 -5t-20 -15.5t-15 -18t-14.5 -21t-10 -15.5l-144 -213h-234zM372 320l166 245q27 40 65 40h16v5h-16q-38 0 -65 40 l-166 245h234l145 -214q50 -73 89 -73q-39 0 -90 -75l-144 -213h-234z" />
<glyph unicode="&#xbf;" horiz-adv-x="942" d="M43 17q0 155 89 248.5t233 127.5q1 1 6 1t7 1q31 7 31 38v188h228v-269q0 -63 -42 -107.5t-101 -44.5h-20q-96 0 -150 -54.5t-54 -132.5q0 -82 57.5 -135.5t146.5 -53.5q64 0 110 20.5t68 52.5t31.5 61.5t9.5 58.5h227q0 -42 -9.5 -84.5t-29.5 -87.5t-55.5 -84t-83 -69.5 t-116 -48.5t-149.5 -18q-108 0 -193.5 34.5t-136.5 91t-77.5 125t-26.5 141.5zM410 875q0 47 33 80.5t80 33.5t80.5 -33.5t33.5 -80.5t-33.5 -80t-80.5 -33t-80 33t-33 80z" />
<glyph unicode="&#xc0;" d="M6 0l478 1371h314l478 -1371h-237l-122 319h-553l-121 -319h-237zM421 518h440l-207 602q-11 36 -11 70v35h-4v-35q0 -34 -11 -70zM482 1703l96 91l222 -236l-96 -91q-19 20 -74.5 78.5t-101.5 108.5z" />
<glyph unicode="&#xc1;" d="M6 0l478 1371h314l478 -1371h-237l-122 319h-553l-121 -319h-237zM421 518h440l-207 602q-11 36 -11 70v35h-4v-35q0 -34 -11 -70zM482 1558l222 236l96 -91l-46 -49q-46 -50 -101.5 -108.5t-74.5 -78.5z" />
<glyph unicode="&#xc2;" d="M6 0l478 1371h314l478 -1371h-237l-122 319h-553l-121 -319h-237zM421 518h440l-207 602q-11 36 -11 70v35h-4v-35q0 -34 -11 -70zM444 1560l105 105q31 31 31 76v53h122v-53q0 -45 31 -76l104 -105l-93 -93l-103 102l-103 -102z" />
<glyph unicode="&#xc3;" d="M6 0l478 1371h314l478 -1371h-237l-122 319h-553l-121 -319h-237zM348 1583l57 44q45 33 100.5 41t106.5 -11q14 -2 64 -25q31 -18 67.5 -16t65.5 24l46 35l71 -101l-54 -41q-47 -36 -106 -43.5t-112 13.5q-10 2 -55 24q-31 18 -67 16t-65 -24l-48 -37zM421 518h440 l-207 602q-11 36 -11 70v35h-4v-35q0 -34 -11 -70z" />
<glyph unicode="&#xc4;" d="M6 0l478 1371h314l478 -1371h-237l-122 319h-553l-121 -319h-237zM361 1607q0 47 33 80.5t80 33.5t80.5 -33.5t33.5 -80.5t-33.5 -80t-80.5 -33t-80 33t-33 80zM421 518h440l-207 602q-11 36 -11 70v35h-4v-35q0 -34 -11 -70zM694 1607q0 47 33 80.5t80 33.5t80.5 -33.5 t33.5 -80.5t-33.5 -80t-80.5 -33t-80 33t-33 80z" />
<glyph unicode="&#xc5;" d="M6 0l478 1371h314l478 -1371h-237l-122 319h-553l-121 -319h-237zM421 518h440l-207 602q-11 36 -11 70v35h-4v-35q0 -34 -11 -70zM477 1630q0 68 48.5 116t115.5 48t115 -48t48 -116t-48 -115.5t-115 -47.5q-68 0 -116 48t-48 115zM587 1630q0 -22 15.5 -37.5 t38.5 -15.5t38.5 15.5t15.5 37.5t-15.5 38t-38.5 16t-38.5 -16t-15.5 -38z" />
<glyph unicode="&#xc6;" horiz-adv-x="1677" d="M6 0l478 1371l1137 1v-199h-724q-25 0 -42 17l-23 24l-3 -3l24 -25q17 -17 17 -42v-339h664v-199h-664v-379q0 -25 -17 -42l-24 -25l3 -3l24 24q18 18 42 18h723v-199h-978v319h-279l-121 -319h-237zM421 518h222v691h-4v-34q0 -34 -11 -70z" />
<glyph unicode="&#xc7;" horiz-adv-x="1380" d="M55 686q0 160 50 295t137 227t207.5 143t259.5 51q231 0 403 -133.5t224 -361.5l-234 -33q-35 152 -141 240.5t-252 88.5q-187 0 -301.5 -142t-114.5 -375t114.5 -375t301.5 -142q146 0 253 90t141 244l234 -33q-49 -219 -209 -353.5t-379 -145.5q38 -34 38 -82 q0 -44 -30 -68.5t-84 -24.5h-68v98h31q41 0 41 36q0 6 -4 16q-11 25 -40 28q-255 27 -416.5 220t-161.5 492z" />
<glyph unicode="&#xc8;" horiz-adv-x="1144" d="M109 0v1371l977 1v-199h-723q-26 0 -43 17l-23 24l-3 -3l24 -25q18 -18 18 -42v-339h664v-199h-664v-379q0 -24 -18 -42l-24 -25l3 -3l24 24q18 18 42 18h723v-199h-977zM438 1703l96 91l222 -236l-96 -91q-19 20 -74.5 78.5t-101.5 108.5z" />
<glyph unicode="&#xc9;" horiz-adv-x="1144" d="M109 0v1371l977 1v-199h-723q-26 0 -43 17l-23 24l-3 -3l25 -25q17 -17 17 -42v-339h664v-199h-664v-379q0 -25 -17 -42l-25 -25l3 -3l24 24q18 18 42 18h723v-199h-977zM438 1558l222 236l96 -91l-46 -49q-46 -50 -101.5 -108.5t-74.5 -78.5z" />
<glyph unicode="&#xca;" horiz-adv-x="1144" d="M109 0v1371l977 1v-199h-723q-26 0 -43 17l-23 24l-3 -3l25 -25q17 -17 17 -42v-339h664v-199h-664v-379q0 -25 -17 -42l-25 -25l3 -3l24 24q18 18 42 18h723v-199h-977zM401 1560l104 105q32 32 32 76v53h121v-53q0 -44 32 -76l104 -105l-94 -93l-103 102l-102 -102z " />
<glyph unicode="&#xcb;" horiz-adv-x="1144" d="M109 0v1371l977 1v-199h-723q-26 0 -43 17l-23 24l-3 -3l24 -25q18 -18 18 -42v-339h664v-199h-664v-379q0 -24 -18 -42l-24 -25l3 -3l24 24q18 18 42 18h723v-199h-977zM317 1607q0 47 33.5 80.5t80.5 33.5t80 -33.5t33 -80.5t-33 -80t-80 -33t-80.5 33t-33.5 80z M650 1607q0 47 33.5 80.5t80.5 33.5t80 -33.5t33 -80.5t-33 -80t-80 -33t-80.5 33t-33.5 80z" />
<glyph unicode="&#xcc;" horiz-adv-x="446" d="M63 1698l97 91l222 -236l-96 -91q-19 20 -74.5 78.5t-101.5 107.5zM109 0v1371h227v-1371h-227z" />
<glyph unicode="&#xcd;" horiz-adv-x="446" d="M63 1558l222 236l97 -91l-46 -49q-46 -50 -101.5 -108.5t-74.5 -78.5zM109 0v1371h227v-1371h-227z" />
<glyph unicode="&#xce;" horiz-adv-x="442" d="M25 1560l104 105q31 31 31 76v53h122v-53q0 -45 31 -76l104 -105l-93 -93l-103 102l-103 -102zM107 0v1371h228v-1371h-228z" />
<glyph unicode="&#xcf;" horiz-adv-x="446" d="M-57 1607q0 47 33 80.5t80 33.5t80.5 -33.5t33.5 -80.5t-33.5 -80t-80.5 -33t-80 33t-33 80zM109 0v1371h227v-1371h-227zM276 1607q0 47 33 80.5t80 33.5t80.5 -33.5t33.5 -80.5t-33.5 -80t-80.5 -33t-80 33t-33 80z" />
<glyph unicode="&#xd0;" horiz-adv-x="1400" d="M23 625v121h113q29 0 49.5 21t20.5 50v554h489q139 0 258 -46t206.5 -132t137 -216.5t49.5 -290.5t-49.5 -291t-137 -216.5t-206.5 -132t-258 -46.5h-489v554q0 29 -20.5 50t-49.5 21h-113zM391 160l3 -3l24 24q18 18 42 18h194q206 0 335 128.5t129 357.5 q0 230 -129 358.5t-335 128.5h-193q-26 0 -43 17l-24 25l-3 -3l25 -25q17 -17 17 -42v-327q0 -29 21 -50t50 -21h118v-121h-118q-29 0 -50 -21t-21 -50v-327q0 -25 -17 -42z" />
<glyph unicode="&#xd1;" horiz-adv-x="1292" d="M109 0v1371h281l551 -969q14 -33 19 -60l4 -18h3l-5 26q-6 29 -6 59v962h227v-1371h-281l-551 969q-14 33 -19 60l-4 18h-4l6 -26q6 -29 6 -59v-962h-227zM361 1601l57 44q52 39 117.5 45t123.5 -23q2 -1 15 -8.5t15 -8.5q31 -18 67.5 -16t65.5 24l45 35l71 -101l-53 -41 q-53 -40 -119.5 -45.5t-124.5 23.5q-2 1 -15 9l-14 7q-31 18 -67 16t-65 -24l-48 -37z" />
<glyph unicode="&#xd2;" horiz-adv-x="1419" d="M55 686q0 160 50 295t137 227t207.5 143t259.5 51t259.5 -51t207.5 -143t137 -227t50 -295t-50 -295t-137 -227t-207.5 -143.5t-259.5 -51.5t-259.5 51.5t-207.5 143.5t-137 227t-50 295zM293 686q0 -233 114.5 -375t301.5 -142t301.5 142t114.5 375t-114.5 375 t-301.5 142t-301.5 -142t-114.5 -375zM550 1698l96 91l222 -236l-96 -91q-19 20 -74.5 78.5t-101.5 107.5z" />
<glyph unicode="&#xd3;" horiz-adv-x="1419" d="M55 686q0 160 50 295t137 227t207.5 143t259.5 51t259.5 -51t207.5 -143t137 -227t50 -295t-50 -295t-137 -227t-207.5 -143.5t-259.5 -51.5t-259.5 51.5t-207.5 143.5t-137 227t-50 295zM293 686q0 -233 114.5 -375t301.5 -142t301.5 142t114.5 375t-114.5 375 t-301.5 142t-301.5 -142t-114.5 -375zM550 1558l222 236l96 -91l-46 -49q-46 -50 -101.5 -108.5t-74.5 -78.5z" />
<glyph unicode="&#xd4;" horiz-adv-x="1419" d="M55 686q0 160 50 295t137 227t207.5 143t259.5 51t259.5 -51t207.5 -143t137 -227t50 -295t-50 -295t-137 -227t-207.5 -143.5t-259.5 -51.5t-259.5 51.5t-207.5 143.5t-137 227t-50 295zM293 686q0 -233 114.5 -375t301.5 -142t301.5 142t114.5 375t-114.5 375 t-301.5 142t-301.5 -142t-114.5 -375zM513 1560l104 105q31 31 31 76v53h122v-53q0 -44 32 -76l104 -105l-94 -93l-103 102l-102 -102z" />
<glyph unicode="&#xd5;" horiz-adv-x="1419" d="M55 686q0 160 50 295t137 227t207.5 143t259.5 51t259.5 -51t207.5 -143t137 -227t50 -295t-50 -295t-137 -227t-207.5 -143.5t-259.5 -51.5t-259.5 51.5t-207.5 143.5t-137 227t-50 295zM293 686q0 -233 114.5 -375t301.5 -142t301.5 142t114.5 375t-114.5 375 t-301.5 142t-301.5 -142t-114.5 -375zM417 1583l56 44q45 33 100 41t105 -11q18 -2 67 -25q31 -18 67.5 -16t65.5 24l45 35l71 -101l-54 -41q-46 -35 -103.5 -43t-109.5 13q-10 1 -59 24q-31 18 -67.5 16t-65.5 -24l-48 -37z" />
<glyph unicode="&#xd6;" horiz-adv-x="1419" d="M55 686q0 160 50 295t137 227t207.5 143t259.5 51t259.5 -51t207.5 -143t137 -227t50 -295t-50 -295t-137 -227t-207.5 -143.5t-259.5 -51.5t-259.5 51.5t-207.5 143.5t-137 227t-50 295zM293 686q0 -233 114.5 -375t301.5 -142t301.5 142t114.5 375t-114.5 375 t-301.5 142t-301.5 -142t-114.5 -375zM429 1607q0 47 33.5 80.5t80.5 33.5t80 -33.5t33 -80.5t-33 -80t-80 -33t-80.5 33t-33.5 80zM762 1607q0 47 33.5 80.5t80.5 33.5t80 -33.5t33 -80.5t-33 -80t-80 -33t-80.5 33t-33.5 80z" />
<glyph unicode="&#xd7;" horiz-adv-x="731" d="M45 431l143 144q14 13 14 33t-14 33l-143 143l141 141l143 -143q13 -14 33 -14t33 14l144 143l140 -141l-143 -143q-14 -13 -14 -33t14 -33l143 -144l-140 -140l-144 143q-13 14 -33 14t-33 -14l-143 -143z" />
<glyph unicode="&#xd8;" horiz-adv-x="1447" d="M61 110l87 86q19 19 23.5 46.5t-8.5 51.5q-94 174 -94 392q0 160 50 295t137 227t207.5 143t259.5 51q217 0 396 -138q23 -18 54 -15t52 24l74 74l86 -86l-86 -86q-20 -20 -24.5 -47t8.5 -51q94 -174 94 -391q0 -160 -50 -295t-137 -227t-207.5 -143.5t-259.5 -51.5 q-217 0 -396 138q-23 18 -53.5 15t-51.5 -24q-5 -5 -33.5 -33t-41.5 -41zM307 686q0 -233 114.5 -375t301.5 -142t301.5 142t114.5 375t-114.5 375t-301.5 142t-301.5 -142t-114.5 -375z" />
<glyph unicode="&#xd9;" horiz-adv-x="1249" d="M92 488v883h228v-897q0 -139 85.5 -222t218.5 -83q140 0 222 87t82 215v900h227v-883q0 -224 -146.5 -371.5t-384.5 -147.5t-385 147.5t-147 371.5zM465 1698l96 91l222 -236l-96 -91q-19 20 -74.5 78.5t-101.5 107.5z" />
<glyph unicode="&#xda;" horiz-adv-x="1249" d="M92 488v883h228v-897q0 -139 85.5 -222t218.5 -83q140 0 222 87t82 215v900h227v-883q0 -224 -146.5 -371.5t-384.5 -147.5t-385 147.5t-147 371.5zM465 1558l222 236l96 -91l-46 -49q-46 -50 -101.5 -108.5t-74.5 -78.5z" />
<glyph unicode="&#xdb;" horiz-adv-x="1249" d="M92 488v883h228v-897q0 -139 85.5 -222t218.5 -83q140 0 222 87t82 215v900h227v-883q0 -224 -146.5 -371.5t-384.5 -147.5t-385 147.5t-147 371.5zM427 1560l104 105q32 32 32 76v53h122v-53q0 -45 31 -76l104 -105l-94 -93l-102 102l-103 -102z" />
<glyph unicode="&#xdc;" horiz-adv-x="1249" d="M92 488v883h228v-897q0 -139 85.5 -222t218.5 -83q140 0 222 87t82 215v900h227v-883q0 -224 -146.5 -371.5t-384.5 -147.5t-385 147.5t-147 371.5zM344 1607q0 47 33 80.5t80 33.5t80.5 -33.5t33.5 -80.5t-33.5 -80t-80.5 -33t-80 33t-33 80zM677 1607q0 47 33 80.5 t80 33.5t80.5 -33.5t33.5 -80.5t-33.5 -80t-80.5 -33t-80 33t-33 80z" />
<glyph unicode="&#xdd;" horiz-adv-x="1249" d="M-10 1371h260l353 -557q19 -33 19 -69v-23h4v23q0 36 19 69l354 557h260l-474 -750q-47 -79 -47 -172v-449h-227v449q0 91 -48 172zM465 1558l222 236l96 -91l-46 -49q-46 -50 -101.5 -108.5t-74.5 -78.5z" />
<glyph unicode="&#xdf;" horiz-adv-x="1062" d="M98 -223v1239q0 173 110.5 279.5t307.5 106.5q190 0 296.5 -105t106.5 -261q0 -79 -29.5 -146t-74.5 -99q-27 -22 -56 -22h-29v-4h29q31 0 58 -13q78 -40 135 -131.5t57 -218.5q0 -180 -115 -291t-285 -111h-192v199h155q97 0 163.5 57t66.5 161q0 95 -65.5 156 t-164.5 61h-155v199h108q82 0 138.5 49t56.5 133q0 86 -58.5 137t-152.5 51q-95 0 -148 -55.5t-53 -149.5v-1221h-210z" />
<glyph unicode="&#xe0;" horiz-adv-x="1038" d="M59 258q-4 227 214 300q69 23 216 55q23 5 65 13t63 13.5t34 10.5q48 20 48 73q0 63 -50.5 105t-139.5 43q-117 1 -172 -67q-43 -52 -26 -130l-205 -27q-30 158 77 271q117 123 329 123q197 0 300 -103t101 -290v-462q0 -13 13 -13h65v-173h-160q-42 0 -66.5 24.5 t-24.5 62.5q0 71 1 84q2 41 9 80l3 14l-4 1q-4 -25 -6 -33q-16 -77 -53 -126q-102 -138 -296 -138q-151 0 -242 84.5t-93 204.5zM271 275q6 -55 50 -89.5t115 -34.5q124 0 196 74t72 184v107q-16 -20 -82 -34q-150 -30 -205 -40q-78 -14 -115 -60.5t-31 -106.5zM358 1358 l96 91l222 -236l-96 -91q-19 20 -74.5 78.5t-101.5 107.5z" />
<glyph unicode="&#xe1;" horiz-adv-x="1038" d="M59 258q-4 227 214 300q69 23 216 55q23 5 65 13t63 13.5t34 10.5q48 20 48 73q0 63 -50.5 105t-139.5 43q-117 1 -172 -67q-43 -52 -26 -130l-205 -27q-30 158 77 271q117 123 329 123q197 0 300 -103t101 -290v-462q0 -13 13 -13h65v-173h-160q-42 0 -66.5 24.5 t-24.5 62.5q0 71 1 84q2 41 9 80l3 14l-4 1q-4 -25 -6 -33q-16 -77 -53 -126q-102 -138 -296 -138q-151 0 -242 84.5t-93 204.5zM271 275q6 -55 50 -89.5t115 -34.5q124 0 196 74t72 184v107q-16 -20 -82 -34q-150 -30 -205 -40q-78 -14 -115 -60.5t-31 -106.5zM358 1213 l222 236l96 -91l-46 -50q-46 -49 -101.5 -107.5t-74.5 -78.5z" />
<glyph unicode="&#xe2;" horiz-adv-x="1038" d="M59 258q-4 227 214 300q69 23 216 55q23 5 65 13t63 13.5t34 10.5q48 20 48 73q0 63 -50.5 105t-139.5 43q-117 1 -172 -67q-43 -52 -26 -130l-205 -27q-30 158 77 271q117 123 329 123q197 0 300 -103t101 -290v-462q0 -13 13 -13h65v-173h-160q-42 0 -66.5 24.5 t-24.5 62.5q0 71 1 84q2 41 9 80l3 14l-4 1q-4 -25 -6 -33q-16 -77 -53 -126q-102 -138 -296 -138q-151 0 -242 84.5t-93 204.5zM271 275q6 -55 50 -89.5t115 -34.5q124 0 196 74t72 184v107q-16 -20 -82 -34q-150 -30 -205 -40q-78 -14 -115 -60.5t-31 -106.5zM321 1216 l104 104q31 31 31 76v53h122v-53q0 -44 32 -76l104 -104l-94 -94l-103 103l-102 -103z" />
<glyph unicode="&#xe3;" horiz-adv-x="1038" d="M59 258q-4 227 214 300q69 23 216 55q23 5 65 13t63 13.5t34 10.5q48 20 48 73q0 63 -50.5 105t-139.5 43q-117 1 -172 -67q-43 -52 -26 -130l-205 -27q-30 158 77 271q117 123 329 123q197 0 300 -103t101 -290v-462q0 -13 13 -13h65v-173h-160q-42 0 -66.5 24.5 t-24.5 62.5q0 71 1 84q2 41 9 80l3 14l-4 1q-4 -25 -6 -33q-16 -77 -53 -126q-102 -138 -296 -138q-151 0 -242 84.5t-93 204.5zM225 1238l56 44q82 62 195 31q59 -16 77 -26q32 -17 68 -15.5t65 23.5l45 35l71 -101l-54 -41q-90 -68 -207 -31q-44 14 -65 25q-32 18 -68 16 t-65 -24l-48 -37zM271 275q6 -55 50 -89.5t115 -34.5q124 0 196 74t72 184v107q-16 -20 -82 -34q-150 -30 -205 -40q-78 -14 -115 -60.5t-31 -106.5z" />
<glyph unicode="&#xe4;" horiz-adv-x="1038" d="M59 258q-4 227 214 300q69 23 216 55q23 5 65 13t63 13.5t34 10.5q48 20 48 73q0 63 -50.5 105t-139.5 43q-117 1 -172 -67q-43 -52 -26 -130l-205 -27q-30 158 77 271q117 123 329 123q197 0 300 -103t101 -290v-462q0 -13 13 -13h65v-173h-160q-42 0 -66.5 24.5 t-24.5 62.5q0 71 1 84q2 41 9 80l3 14l-4 1q-4 -25 -6 -33q-16 -77 -53 -126q-102 -138 -296 -138q-151 0 -242 84.5t-93 204.5zM237 1262q0 47 33.5 80.5t80.5 33.5t80 -33.5t33 -80.5t-33 -80t-80 -33t-80.5 33t-33.5 80zM271 275q6 -55 50 -89.5t115 -34.5q124 0 196 74 t72 184v107q-16 -20 -82 -34q-150 -30 -205 -40q-78 -14 -115 -60.5t-31 -106.5zM570 1262q0 47 33.5 80.5t80.5 33.5t80 -33.5t33 -80.5t-33 -80t-80 -33t-80.5 33t-33.5 80z" />
<glyph unicode="&#xe5;" horiz-adv-x="1038" d="M59 258q-4 227 214 300q69 23 216 55q23 5 65 13t63 13.5t34 10.5q48 20 48 73q0 63 -50.5 105t-139.5 43q-117 1 -172 -67q-43 -52 -26 -130l-205 -27q-30 158 77 271q117 123 329 123q197 0 300 -103t101 -290v-462q0 -13 13 -13h65v-173h-160q-42 0 -66.5 24.5 t-24.5 62.5q0 71 1 84q2 41 9 80l3 14l-4 1q-4 -25 -6 -33q-16 -77 -53 -126q-102 -138 -296 -138q-151 0 -242 84.5t-93 204.5zM271 275q6 -55 50 -89.5t115 -34.5q124 0 196 74t72 184v107q-16 -20 -82 -34q-150 -30 -205 -40q-78 -14 -115 -60.5t-31 -106.5zM354 1285 q0 68 48 116t115 48t115.5 -48.5t48.5 -115.5t-48 -115t-116 -48q-67 0 -115 48t-48 115zM464 1285q0 -23 15 -38t38 -15t38.5 15.5t15.5 37.5q0 23 -15.5 38.5t-38.5 15.5q-22 0 -37.5 -15.5t-15.5 -38.5z" />
<glyph unicode="&#xe6;" horiz-adv-x="1712" d="M62 259q-4 226 213 299q100 33 201 55q127 27 147 36q47 20 47 73q0 64 -48 105t-132 41q-100 0 -153 -63q-42 -52 -26 -130l-203 -28q-16 76 1.5 148.5t68.5 127.5q108 119 312 119q127 0 211 -47.5t120 -135.5q58 86 148.5 134.5t202.5 48.5q215 0 350 -148t135 -388 q0 -31 -5 -66h-745q11 -125 81 -203.5t184 -78.5q93 0 156 53.5t89 144.5l212 -39q-47 -161 -168.5 -254.5t-288.5 -93.5q-137 0 -243.5 66.5t-165.5 183.5q-24 -78 -88 -142q-109 -107 -295 -107q-149 0 -232.5 83.5t-85.5 205.5zM272 275q6 -55 48.5 -89.5t110.5 -34.5 q118 0 186.5 74.5t68.5 184.5l1 106q-16 -19 -79 -33q-180 -38 -196 -41q-75 -14 -110.5 -60.5t-29.5 -106.5zM908 589h527q-15 118 -84 191t-179 73t-179.5 -73t-84.5 -191z" />
<glyph unicode="&#xe7;" horiz-adv-x="1073" d="M57 506q0 240 135 388t350 148q190 0 319.5 -117t157.5 -315l-208 -21q-19 122 -89.5 193t-179.5 71q-128 0 -201.5 -96t-73.5 -251t73.5 -251.5t201.5 -96.5q108 0 179 71.5t90 192.5l208 -21q-26 -185 -141.5 -300.5t-287.5 -129.5q39 -32 39 -82q0 -44 -30 -68.5 t-84 -24.5h-68v98h30q42 0 42 36q0 5 -4 15q-12 25 -39 28q-188 22 -303.5 167.5t-115.5 365.5z" />
<glyph unicode="&#xe8;" horiz-adv-x="1083" d="M57 506q0 240 135 388t350 148t350.5 -148t135.5 -388q0 -24 -6 -66h-744q11 -125 80.5 -203.5t183.5 -78.5q93 0 156.5 53.5t89.5 144.5l212 -39q-47 -160 -169 -254t-289 -94q-215 0 -350 148.5t-135 388.5zM279 589h527q-15 118 -84.5 191t-179.5 73 q-109 0 -178.5 -72.5t-84.5 -191.5zM383 1358l97 91l222 -236l-97 -91q-19 20 -74.5 78.5t-101.5 107.5z" />
<glyph unicode="&#xe9;" horiz-adv-x="1083" d="M57 506q0 240 135 388t350 148t350.5 -148t135.5 -388q0 -24 -6 -66h-744q11 -125 80.5 -203.5t183.5 -78.5q93 0 156.5 53.5t89.5 144.5l212 -39q-47 -160 -169 -254t-289 -94q-215 0 -350 148.5t-135 388.5zM279 589h527q-15 118 -84.5 191t-179.5 73 q-109 0 -178.5 -72.5t-84.5 -191.5zM383 1213l222 236l97 -91l-46 -50q-47 -49 -102.5 -107.5t-74.5 -78.5z" />
<glyph unicode="&#xea;" horiz-adv-x="1083" d="M57 506q0 240 135 388t350 148t350.5 -148t135.5 -388q0 -24 -6 -66h-744q11 -125 80.5 -203.5t183.5 -78.5q93 0 156.5 53.5t89.5 144.5l212 -39q-47 -160 -169 -254t-289 -94q-215 0 -350 148.5t-135 388.5zM279 589h527q-15 118 -84.5 191t-179.5 73 q-109 0 -178.5 -72.5t-84.5 -191.5zM346 1216l104 104q32 32 32 76v53h121v-53q0 -44 32 -76l104 -104l-94 -94l-103 103l-102 -103z" />
<glyph unicode="&#xeb;" horiz-adv-x="1083" d="M57 506q0 240 135 388t350 148t350.5 -148t135.5 -388q0 -24 -6 -66h-744q11 -125 80.5 -203.5t183.5 -78.5q93 0 156.5 53.5t89.5 144.5l212 -39q-47 -160 -169 -254t-289 -94q-215 0 -350 148.5t-135 388.5zM262 1262q0 47 33.5 80.5t80.5 33.5t80 -33.5t33 -80.5 t-33 -80t-80 -33t-80.5 33t-33.5 80zM279 589h527q-15 118 -84.5 191t-179.5 73q-109 0 -178.5 -72.5t-84.5 -191.5zM595 1262q0 47 33.5 80.5t80.5 33.5t80 -33.5t33 -80.5t-33 -80t-80 -33t-80.5 33t-33.5 80z" />
<glyph unicode="&#xec;" horiz-adv-x="409" d="M45 1358l96 91l222 -236l-96 -91q-19 20 -74.5 78.5t-101.5 107.5zM99 0v1012h210v-1012h-210z" />
<glyph unicode="&#xed;" horiz-adv-x="409" d="M45 1213l222 236l96 -91l-46 -50q-46 -49 -101.5 -107.5t-74.5 -78.5zM99 0v1012h210v-1012h-210z" />
<glyph unicode="&#xee;" horiz-adv-x="405" d="M6 1216l104 104q32 32 32 76v53h121v-53q0 -44 32 -76l104 -104l-94 -94l-102 103l-103 -103zM98 0v1012h209v-87q0 -87 0.5 -216.5t0.5 -268v-262.5v-178h-210z" />
<glyph unicode="&#xef;" horiz-adv-x="407" d="M-78 1262q0 47 33.5 80.5t80.5 33.5t80 -33.5t33 -80.5t-33 -80t-80 -33t-80.5 33t-33.5 80zM97 0v1012h210v-1012h-210zM255 1262q0 47 33.5 80.5t80.5 33.5t80 -33.5t33 -80.5t-33 -80t-80 -33t-80.5 33t-33.5 80z" />
<glyph unicode="&#xf0;" horiz-adv-x="1130" d="M59 506q0 235 121 385.5t321 150.5q64 0 116.5 -15.5t85 -38t57 -54.5t36.5 -57.5t20 -54.5l20 -68l4 1l-7 24q-8 28 -11 66q-1 10 -1 113q0 104 -31 194q-6 -6 -37.5 -37t-41.5 -41l-70 70l59 59q19 19 21 46.5t-13 50.5q-32 48 -53 71l150 150q54 -54 92 -121l96 96 l70 -71l-69 -69q-41 -41 -18 -93q55 -129 55 -262v-1001h-210v135q0 49 12 97l7 24l-4 1l-19 -65q-8 -29 -20 -55.5t-36.5 -58.5t-57.5 -54.5t-85.5 -38t-116.5 -15.5q-200 0 -321 150.5t-121 385.5zM269 506q0 -155 73.5 -251.5t201.5 -96.5q127 0 196.5 95.5t69.5 252.5 t-69.5 252.5t-196.5 95.5q-128 0 -201.5 -96.5t-73.5 -251.5z" />
<glyph unicode="&#xf1;" horiz-adv-x="1073" d="M98 0v1012h210v-112q0 -49 -12 -97l-7 -24l3 -1l14 50q18 65 59 112q93 102 252 102q177 0 274.5 -120.5t97.5 -337.5v-584h-210v537q0 154 -58.5 235.5t-173.5 81.5q-111 0 -175 -81.5t-64 -219.5v-553h-210zM248 1239l57 43q51 37 113.5 44t118.5 -19q4 -1 20.5 -10 t18.5 -10q31 -18 67.5 -16t65.5 24l45 35l71 -101l-54 -41q-50 -37 -110 -44.5t-116 16.5q-6 1 -26 12l-20 10q-31 18 -67 16t-65 -24l-49 -37z" />
<glyph unicode="&#xf2;" horiz-adv-x="1085" d="M57 506q0 240 135 388t350 148t350.5 -148t135.5 -388t-135.5 -388.5t-350.5 -148.5t-350 148.5t-135 388.5zM267 506q0 -155 73.5 -251.5t201.5 -96.5t202 96.5t74 251.5t-74 251t-202 96t-201.5 -96t-73.5 -251zM383 1358l97 91l222 -236l-97 -91q-19 20 -74.5 78.5 t-101.5 107.5z" />
<glyph unicode="&#xf3;" horiz-adv-x="1085" d="M57 506q0 240 135 388t350 148t350.5 -148t135.5 -388t-135.5 -388.5t-350.5 -148.5t-350 148.5t-135 388.5zM267 506q0 -155 73.5 -251.5t201.5 -96.5t202 96.5t74 251.5t-74 251t-202 96t-201.5 -96t-73.5 -251zM383 1213l222 236l97 -91l-46 -50 q-47 -49 -102.5 -107.5t-74.5 -78.5z" />
<glyph unicode="&#xf4;" horiz-adv-x="1085" d="M57 506q0 240 135 388t350 148t350.5 -148t135.5 -388t-135.5 -388.5t-350.5 -148.5t-350 148.5t-135 388.5zM267 506q0 -155 73.5 -251.5t201.5 -96.5t202 96.5t74 251.5t-74 251t-202 96t-201.5 -96t-73.5 -251zM346 1216l104 104q32 32 32 76v53h121v-53q0 -44 32 -76 l104 -104l-94 -94l-103 103l-102 -103z" />
<glyph unicode="&#xf5;" horiz-adv-x="1085" d="M57 506q0 240 135 388t350 148t350.5 -148t135.5 -388t-135.5 -388.5t-350.5 -148.5t-350 148.5t-135 388.5zM250 1238l57 44q89 65 203 30q56 -19 68 -25q32 -18 68 -16t65 24l45 35l71 -101l-54 -41q-81 -61 -193 -32q-58 15 -79 26q-31 18 -67.5 16t-65.5 -24l-48 -37 zM267 506q0 -155 73.5 -251.5t201.5 -96.5t202 96.5t74 251.5t-74 251t-202 96t-201.5 -96t-73.5 -251z" />
<glyph unicode="&#xf6;" horiz-adv-x="1085" d="M57 506q0 240 135 388t350 148t350.5 -148t135.5 -388t-135.5 -388.5t-350.5 -148.5t-350 148.5t-135 388.5zM262 1262q0 47 33.5 80.5t80.5 33.5t80 -33.5t33 -80.5t-33 -80t-80 -33t-80.5 33t-33.5 80zM267 506q0 -155 73.5 -251.5t201.5 -96.5t202 96.5t74 251.5 t-74 251t-202 96t-201.5 -96t-73.5 -251zM595 1262q0 47 33.5 80.5t80.5 33.5t80 -33.5t33 -80.5t-33 -80t-80 -33t-80.5 33t-33.5 80z" />
<glyph unicode="&#xf7;" horiz-adv-x="788" d="M43 508v199h698v-199h-698zM279 258q0 47 33 80.5t80 33.5t80 -33.5t33 -80.5t-33 -80t-80 -33t-80 33t-33 80zM279 957q0 47 33 80.5t80 33.5t80 -33.5t33 -80.5t-33 -80t-80 -33t-80 33t-33 80z" />
<glyph unicode="&#xf8;" horiz-adv-x="1171" d="M33 38l101 101q45 45 19 105q-52 116 -52 262q0 240 135 388t350 148q143 0 269 -86q25 -17 55.5 -13.5t51.5 24.5l91 91l86 -86l-6 -6q-6 -5 -15.5 -15t-22 -22t-28 -27.5l-29.5 -29.5q-21 -21 -26.5 -50t6.5 -56q53 -117 53 -261q0 -240 -135 -388t-350 -148 q-144 0 -270 86q-25 16 -55 13t-51 -24l-91 -91zM310 506q0 -155 74 -251.5t202 -96.5t201.5 96.5t73.5 251.5t-73.5 251t-201.5 96t-202 -96t-74 -251z" />
<glyph unicode="&#xf9;" horiz-adv-x="1075" d="M86 428v584h210v-537q0 -317 232 -317q111 0 175 81.5t64 219.5v553h210v-1012h-210v111q0 50 12 98l7 24l-4 1l-20 -68q-12 -33 -32.5 -63.5t-55 -62.5t-90.5 -51.5t-126 -19.5q-181 0 -276.5 120t-95.5 339zM372 1358l96 91l222 -236l-96 -91q-19 20 -74.5 78.5 t-101.5 107.5z" />
<glyph unicode="&#xfa;" horiz-adv-x="1075" d="M86 428v584h210v-537q0 -317 232 -317q111 0 175 81.5t64 219.5v553h210v-1012h-210v111q0 50 12 98l7 24l-4 1l-20 -68q-12 -33 -32.5 -63.5t-55 -62.5t-90.5 -51.5t-126 -19.5q-181 0 -276.5 120t-95.5 339zM372 1213l222 236l96 -91l-46 -50q-46 -49 -101.5 -107.5 t-74.5 -78.5z" />
<glyph unicode="&#xfb;" horiz-adv-x="1075" d="M86 428v584h210v-537q0 -317 232 -317q111 0 175 81.5t64 219.5v553h210v-1012h-210v111q0 50 12 98l7 24l-4 1l-20 -68q-12 -33 -32.5 -63.5t-55 -62.5t-90.5 -51.5t-126 -19.5q-181 0 -276.5 120t-95.5 339zM335 1216l104 104q31 31 31 76v53h122v-53q0 -44 32 -76 l104 -104l-94 -94l-103 103l-102 -103z" />
<glyph unicode="&#xfc;" horiz-adv-x="1075" d="M86 428v584h210v-537q0 -317 232 -317q111 0 175 81.5t64 219.5v553h210v-1012h-210v111q0 50 12 98l7 24l-4 1l-20 -68q-12 -33 -32.5 -63.5t-55 -62.5t-90.5 -51.5t-126 -19.5q-181 0 -276.5 120t-95.5 339zM251 1262q0 47 33.5 80.5t80.5 33.5t80 -33.5t33 -80.5 t-33 -80t-80 -33t-80.5 33t-33.5 80zM584 1262q0 47 33.5 80.5t80.5 33.5t80 -33.5t33 -80.5t-33 -80t-80 -33t-80.5 33t-33.5 80z" />
<glyph unicode="&#xfd;" horiz-adv-x="1017" d="M10 1012h226l258 -647q12 -30 12 -64v-37h4v37q0 34 12 64l258 647h226l-554 -1372h-225l141 350q26 68 0 137zM349 1223l222 236l96 -91l-46 -50q-46 -49 -101.5 -107.5t-74.5 -78.5z" />
<glyph unicode="&#xff;" horiz-adv-x="1017" d="M10 1012h226l258 -646q12 -30 12 -64v-37h4v37q0 34 12 64l258 646h226l-554 -1371h-225l141 350q26 68 0 137zM228 1262q0 47 33.5 80.5t80.5 33.5t80 -33.5t33 -80.5t-33 -80t-80 -33t-80.5 33t-33.5 80zM561 1262q0 47 33.5 80.5t80.5 33.5t80 -33.5t33 -80.5t-33 -80 t-80 -33t-80.5 33t-33.5 80z" />
<glyph unicode="&#x152;" horiz-adv-x="2164" d="M55 686q0 160 50 295t137 227t207.5 143t259.5 51q132 0 242.5 -62.5t177.5 -170.5v202l978 1v-199h-723q-26 0 -43 17l-23 24l-3 -3l24 -25q18 -18 18 -42v-339h664v-199h-664v-379q0 -24 -18 -42l-24 -25l3 -3l24 24q18 18 42 18h723v-199h-978v202 q-67 -108 -177.5 -170.5t-242.5 -62.5q-139 0 -259.5 51.5t-207.5 143.5t-137 227t-50 295zM293 686q0 -233 114.5 -375t301.5 -142t301.5 142t114.5 375t-114.5 375t-301.5 142t-301.5 -142t-114.5 -375z" />
<glyph unicode="&#x153;" horiz-adv-x="1845" d="M57 506q0 240 135 388t350 148q126 0 225.5 -61t155.5 -166q56 105 155 166t225 61q215 0 350 -148t135 -388q0 -31 -5 -66h-745q11 -125 81 -203.5t184 -78.5q93 0 156.5 53.5t89.5 144.5l211 -39q-47 -161 -168.5 -254.5t-288.5 -93.5q-126 0 -225 61t-155 166 q-56 -105 -155.5 -166t-225.5 -61q-215 0 -350 148.5t-135 388.5zM267 506q0 -155 73.5 -251.5t201.5 -96.5t202 96.5t74 251.5t-74 251t-202 96t-201.5 -96t-73.5 -251zM1040 589h526q-15 119 -84.5 191.5t-178.5 72.5t-178.5 -72.5t-84.5 -191.5z" />
<glyph unicode="&#x178;" horiz-adv-x="1249" d="M-10 1371h260l353 -557q19 -33 19 -69v-23h4v23q0 36 19 69l354 557h260l-474 -750q-47 -79 -47 -172v-449h-227v449q0 91 -48 172zM344 1607q0 47 33.5 80.5t80.5 33.5t80 -33.5t33 -80.5t-33 -80t-80 -33t-80.5 33t-33.5 80zM677 1607q0 47 33.5 80.5t80.5 33.5 t80 -33.5t33 -80.5t-33 -80t-80 -33t-80.5 33t-33.5 80z" />
<glyph unicode="&#x2c6;" horiz-adv-x="462" d="M33 1216l104 104q31 31 31 76v53h122v-53q0 -44 32 -76l104 -104l-94 -94l-103 103l-102 -103z" />
<glyph unicode="&#x2dc;" horiz-adv-x="649" d="M33 1238l56 44q89 65 203 30q58 -19 69 -25q32 -18 68 -16t65 24l45 35l71 -101l-54 -41q-81 -61 -193 -32q-58 15 -79 26q-31 18 -67.5 16t-65.5 -24l-48 -37z" />
<glyph unicode="&#x2000;" horiz-adv-x="897" />
<glyph unicode="&#x2001;" horiz-adv-x="1794" />
<glyph unicode="&#x2002;" horiz-adv-x="897" />
<glyph unicode="&#x2003;" horiz-adv-x="1794" />
<glyph unicode="&#x2004;" horiz-adv-x="598" />
<glyph unicode="&#x2005;" horiz-adv-x="448" />
<glyph unicode="&#x2006;" horiz-adv-x="299" />
<glyph unicode="&#x2007;" horiz-adv-x="299" />
<glyph unicode="&#x2008;" horiz-adv-x="224" />
<glyph unicode="&#x2009;" horiz-adv-x="358" />
<glyph unicode="&#x200a;" horiz-adv-x="99" />
<glyph unicode="&#x2010;" horiz-adv-x="786" d="M41 508v199h698v-199h-698z" />
<glyph unicode="&#x2011;" horiz-adv-x="786" d="M41 508v199h698v-199h-698z" />
<glyph unicode="&#x2012;" horiz-adv-x="786" d="M41 508v199h698v-199h-698z" />
<glyph unicode="&#x2013;" horiz-adv-x="751" d="M27 508v199h698v-199h-698z" />
<glyph unicode="&#x2014;" horiz-adv-x="978" d="M29 508v199h923v-199h-923z" />
<glyph unicode="&#x2018;" horiz-adv-x="356" d="M34 1160q-10 54 27 92l164 174l96 -91l-74 -79q-13 -15 -4 -32q14 -27 13 -56q-2 -39 -30 -68.5t-67 -34.5q-45 -6 -81 22t-44 73z" />
<glyph unicode="&#x2019;" horiz-adv-x="356" d="M33 1151l74 78q13 15 4 32q-14 27 -13 57q2 39 29.5 68t66.5 34q45 6 81 -22t44 -73q10 -54 -26 -91l-164 -175z" />
<glyph unicode="&#x201a;" horiz-adv-x="356" d="M33 -62l74 78q13 15 4 33q-14 27 -13 56q2 39 29.5 68t66.5 34q45 6 81 -21.5t44 -72.5q10 -55 -26 -92l-164 -174z" />
<glyph unicode="&#x201c;" horiz-adv-x="647" d="M34 1160q-10 54 27 92l164 174l96 -91l-74 -79q-13 -15 -4 -32q14 -27 13 -56q-2 -39 -30 -68.5t-67 -34.5q-45 -6 -81 22t-44 73zM326 1160q-10 54 27 92l164 174l96 -91l-74 -79q-13 -15 -4 -32q14 -26 12 -56q-2 -40 -29.5 -69t-66.5 -34q-46 -6 -81.5 21.5 t-43.5 73.5z" />
<glyph unicode="&#x201d;" horiz-adv-x="647" d="M33 1151l74 78q13 15 4 32q-14 27 -13 57q2 39 29.5 68t66.5 34q45 6 81 -22t44 -73q10 -54 -26 -91l-164 -175zM325 1151l74 78q13 15 4 32q-14 27 -13 57q2 39 29.5 68t66.5 34q46 6 81.5 -21.5t43.5 -73.5q10 -54 -26 -91l-164 -175z" />
<glyph unicode="&#x201e;" horiz-adv-x="647" d="M33 -62l74 78q13 15 4 33q-14 27 -13 56q2 39 29.5 68t66.5 34q45 6 81 -21.5t44 -72.5q10 -55 -26 -92l-164 -174zM325 -62l74 78q13 15 4 33q-14 27 -13 56q2 39 29.5 68t66.5 34q45 6 81 -21.5t44 -72.5q10 -55 -26 -92l-164 -174z" />
<glyph unicode="&#x2026;" horiz-adv-x="880" d="M33 100q0 47 33 80t80 33t80.5 -33t33.5 -80t-33.5 -80.5t-80.5 -33.5t-80 33.5t-33 80.5zM325 100q0 47 33 80t80 33t80.5 -33t33.5 -80t-33.5 -80.5t-80.5 -33.5t-80 33.5t-33 80.5zM617 100q0 47 33 80t80 33t80.5 -33t33.5 -80t-33.5 -80.5t-80.5 -33.5t-80 33.5 t-33 80.5z" />
<glyph unicode="&#x202f;" horiz-adv-x="358" />
<glyph unicode="&#x2039;" horiz-adv-x="499" d="M8 608q9 0 18.5 4.5t16.5 9.5t15.5 15t12.5 15.5t11 16.5t8 13l144 213h234l-166 -245q-27 -40 -65 -40h-16v-5h16q38 0 65 -40l166 -245h-234l-144 214q-1 2 -8 13t-11 16.5t-12.5 15.5t-15.5 15t-16.5 9.5t-18.5 4.5z" />
<glyph unicode="&#x203a;" horiz-adv-x="501" d="M25 320l165 245q27 40 65 40h32v5h-32q-38 0 -65 40l-165 245h234l144 -214q2 -2 8.5 -12.5t10.5 -16.5t12 -15.5t15 -15t16.5 -9.5t18.5 -4q-11 0 -21.5 -5t-20 -15.5t-15 -18t-14.5 -21t-10 -15.5l-144 -213h-234z" />
<glyph unicode="&#x205f;" horiz-adv-x="448" />
<glyph unicode="&#x20ac;" horiz-adv-x="1533" d="M33 541v75h132q14 0 24.5 10.5t9.5 24.5q-1 11 -1 35q0 29 1 42q1 14 -9.5 24.5t-24.5 10.5h-132v75h137q17 0 30 10.5t17 27.5q52 243 224.5 384.5t409.5 141.5q231 0 403 -133.5t224 -361.5l-234 -33q-35 152 -141 240.5t-252 88.5q-142 0 -243.5 -87t-145.5 -238 q-5 -15 4.5 -27.5t25.5 -12.5h329v-75h-347q-15 0 -25.5 -10t-11.5 -25q-2 -26 -2 -42q0 -12 2 -34q1 -15 11.5 -25.5t25.5 -10.5h347v-75h-332q-16 0 -25 -12.5t-5 -27.5q41 -154 144 -243t248 -89q147 0 254 90.5t141 243.5l233 -33q-51 -229 -223.5 -365t-404.5 -136 q-239 0 -412 143.5t-223 389.5q-4 17 -17.5 28t-30.5 11h-135z" />
<glyph unicode="&#x2122;" horiz-adv-x="995" d="M37 1280v91h364v-91h-132v-383h-101v383h-131zM438 897v474h168l81 -320l81 320h168v-474h-102v321l-81 -321h-132l-81 321v-321h-102z" />
<glyph unicode="&#x25fc;" horiz-adv-x="1013" d="M0 0v1014h1014v-1014h-1014z" />
</font>
</defs>
</svg>
